<?xml version="1.0" standalone="no"?>
<!DOCTYPE svg PUBLIC "-//W3C//DTD SVG 1.1//EN" "http://www.w3.org/Graphics/SVG/1.1/DTD/svg11.dtd" >
<svg>
<metadata>
Created by FontForge 20090622 at Wed Mar  7 15:26:47 2018
 By deploy user
Copyright (c) 1992 Image Club Graphics, Inc.
</metadata>
<defs>
<font id="StoneSerifMediumItalic" horiz-adv-x="983" >
  <font-face 
    font-family="Stone Serif"
    font-weight="5"
    font-style="italic"
    font-stretch="normal"
    units-per-em="1311"
    panose-1="0 0 0 0 0 0 0 0 0 0"
    ascent="1048"
    descent="-263"
    x-height="687"
    cap-height="962"
    bbox="-68 -356 1659 1310"
    underline-thickness="20"
    underline-position="-156"
    slope="-12"
    unicode-range="U+0020-U+25CA"
  />
<missing-glyph horiz-adv-x="962" 
d="M60 0v962h842v-962h-842zM842 60v842h-722v-842h722z" />
    <glyph glyph-name=".notdef" horiz-adv-x="962" 
d="M60 0v962h842v-962h-842zM842 60v842h-722v-842h722z" />
    <glyph glyph-name=".null" unicode="&#xd7;" horiz-adv-x="0" 
 />
    <glyph glyph-name=".null" unicode="&#x141;" horiz-adv-x="0" 
 />
    <glyph glyph-name=".null" unicode="&#xfd;" horiz-adv-x="0" 
 />
    <glyph glyph-name="nonmarkingreturn" horiz-adv-x="289" 
 />
    <glyph glyph-name="space" unicode=" " horiz-adv-x="289" 
 />
    <glyph glyph-name="exclam" unicode="!" horiz-adv-x="259" 
d="M408 982l-197 -716h-39l87 699q3 24 24.5 34.5t53.5 10.5q36 0 56 -4.5t15 -23.5zM216 19q-13 -18 -35 -27.5t-46 -9.5q-17 0 -29 3.5t-23.5 13.5t-17 24.5t-5.5 34.5q0 21 5 36.5t15.5 29t32.5 24.5t45 11q25 0 42 -12q35 -23 35 -69q0 -32 -19 -59z" />
    <glyph glyph-name="quotedbl" unicode="&#x22;" horiz-adv-x="417" 
d="M583 963l-122 -389h-39l37 389h124zM377 963l-122 -390h-37l35 390h124z" />
    <glyph glyph-name="numbersign" unicode="#" horiz-adv-x="786" 
d="M887 665l-18 -80l-158 2l-70 -199l149 -2l-17 -75h-159l-110 -310h-82l110 310h-182l-111 -310h-81l110 312h-151l17 76h163l70 203h-148l17 78h160l106 293h80l-106 -293h186l106 293h80l-108 -297zM632 590h-182l-74 -202h185z" />
    <glyph glyph-name="dollar" unicode="$" horiz-adv-x="657" 
d="M748 933q2 -5 0.5 -16t-4.5 -24l-31 -155h-37l2 26q0 45 -10.5 78.5t-37.5 57.5q-11 10 -22 15t-28 8l-107 -352l34 -32q78 -73 112 -127q46 -72 46 -146q0 -31 -9 -66q-26 -98 -121 -154q-89 -52 -208 -52h-28l-41 -142h-61l43 145l-14 2q-80 9 -121.5 26t-45.5 36
q2 13 3 21l41 186h38l-2 -22q-1 -7 -1 -22q0 -41 12.5 -80.5t34.5 -58.5q17 -15 34 -24.5t37 -14.5l126 416l-89 87q-72 70 -72 157q0 25 8 52q27 88 113 150t178 62h15l34 111h58l-32 -110l15 -2q65 -8 90 -14q44 -10 48 -22zM523 928q-57 0 -101.5 -29.5t-62.5 -83.5
q-9 -30 -9 -57q0 -54 38 -98l38 -43zM519 157q10 28 10 59q0 45 -16 87.5t-48 75.5l-36 38l-115 -378q6 -1 19 -1q59 0 118 42q52 37 68 77z" />
    <glyph glyph-name="percent" unicode="%" horiz-adv-x="1264" 
d="M676 685q-28 -137 -110 -220q-90 -91 -219 -91q-78 0 -125 74q-42 66 -42 160q0 39 9 77q33 134 111 207q82 77 203 77q80 0 131 -68q48 -65 48 -157q0 -29 -6 -59zM1124 962l-691 -962h-87l693 962h85zM1296 304q-28 -136 -110 -220q-90 -92 -219 -92q-78 0 -125 74
q-42 67 -42 161q0 41 9 77q33 134 111 207q82 77 203 77q80 0 131 -68q48 -65 48 -157q0 -29 -6 -59zM567 682l7 62.5t4 59.5q0 57 -15 88q-18 38 -62 43q-6 1 -18 1q-81 0 -135 -97q-37 -66 -50 -141q-6 -33 -10 -63q-7 -51 -7 -88q0 -62 15 -94q20 -42 65 -42q91 0 146 86
q45 71 60 185zM1187 301q4 27 7.5 62t3.5 59q0 57 -15 88q-19 39 -62 44q-6 1 -18 1q-81 0 -135 -97q-37 -66 -50 -141q-6 -33 -10 -63q-7 -51 -7 -89q0 -62 15 -94q20 -42 65 -42q91 0 146 87q45 71 60 185z" />
    <glyph glyph-name="ampersand" unicode="&#x26;" horiz-adv-x="1042" 
d="M1158 651l-10 -29l-72 -32h-111l-22 -106q-12 -54 -22 -87t-32 -83q-16 -37 -27.5 -58t-34.5 -57q29 -40 67 -79q34 -34 67 -59l53 -36l-5 -26h-168l-90 109l-82 -61q-45 -34 -106.5 -52t-124.5 -18q-134 0 -227 68q-103 76 -103 206q0 98 76 175q72 72 185 102l33 9
l-32 44q-30 39 -46.5 80.5t-16.5 83.5q0 23 4 42q16 90 96 141q73 47 175 47q63 0 105 -10t91 -42l-25 -127h-37l-3 28q-7 46 -43.5 77t-85.5 31q-28 0 -54 -9.5t-53.5 -32.5t-41 -51t-13.5 -59q0 -45 27 -98q22 -44 62 -94l279 -346q25 35 41 73t24.5 84.5t8.5 78.5
q0 50 -19 110h-138l7 25l83 38h361zM719 147l-290 355l-31 -14q-68 -33 -107.5 -95t-39.5 -135q0 -52 22 -99q26 -58 83.5 -89t126.5 -31q102 0 177 60z" />
    <glyph glyph-name="quotesingle" unicode="'" horiz-adv-x="215" 
d="M379 962l-131 -389h-39l44 389h126z" />
    <glyph glyph-name="parenleft" unicode="(" horiz-adv-x="407" 
d="M568 963l-39 -30q-104 -78 -173.5 -195t-107.5 -272q-17 -71 -28 -149.5t-11 -146.5q0 -111 27 -199.5t86 -147.5l11 -11l-22 -24l-39 40q-87 89 -126 188.5t-39 216.5q0 58 8 111.5t25 121.5q29 112 102 220q61 90 148 171q70 65 144 111l25 15z" />
    <glyph glyph-name="parenright" unicode=")" horiz-adv-x="421" 
d="M451 308q-29 -111 -102 -219q-63 -93 -148 -172q-69 -64 -145 -111l-24 -15l-10 20l40 30q104 78 173.5 195t107.5 272q17 71 28 149.5t11 146.5q0 111 -27 199.5t-86 147.5l-11 11l22 24l39 -40q87 -89 126 -188.5t39 -216.5q0 -58 -8 -111.5t-25 -121.5z" />
    <glyph glyph-name="asterisk" unicode="*" horiz-adv-x="558" 
d="M692 759l-219 -44l143 -147l-97 -60l-91 173l-112 -174l-90 57l162 149l-186 42l41 97l175 -84l-7 194h113l-53 -196l193 84z" />
    <glyph glyph-name="plus" unicode="+" horiz-adv-x="774" 
d="M839 438l-17 -83h-303l-59 -303h-94l64 303h-302l18 83h303l65 303h88l-64 -303h301z" />
    <glyph glyph-name="comma" unicode="," horiz-adv-x="272" 
d="M251 61q-5 -17 -8 -23.5t-14 -20.5l-219 -271l-41 44l54 56q29 31 48 71q13 28 27 75q6 23 8.5 56.5t2.5 34.5q2 10 7 18.5t13 14.5l57 43q11 8 14 9q8 3 18 1q10 -3 17 -18l12 -34q7 -18 7 -38q0 -10 -3 -18z" />
    <glyph glyph-name="hyphen" unicode="-" horiz-adv-x="371" 
d="M427 440l-17 -89h-290l17 89h290z" />
    <glyph glyph-name="period" unicode="." horiz-adv-x="256" 
d="M179 161q29 -3 44.5 -24.5t15.5 -52.5q0 -39 -25.5 -69.5t-71.5 -30.5q-9 1 -13 1q-33 4 -50.5 25t-17.5 50q0 39 28.5 70.5t75.5 31.5q9 0 14 -1z" />
    <glyph glyph-name="slash" unicode="/" horiz-adv-x="652" 
d="M987 1021l-840 -1165h-101l838 1165h103z" />
    <glyph glyph-name="zero" unicode="0" horiz-adv-x="783" 
d="M862 650q0 -255 -133 -457q-139 -212 -328 -212q-134 0 -200 99q-59 88 -59 242q0 295 149 487q134 173 308 173q127 0 197 -93q66 -88 66 -239zM736 682q0 255 -141 255q-97 0 -178 -120q-69 -102 -110.5 -262t-41.5 -287q0 -116 33 -179t103 -63q136 0 240 228
q95 209 95 428z" />
    <glyph glyph-name="one" unicode="1" horiz-adv-x="581" 
d="M588 974l-179 -847q-5 -20 -5 -36q0 -17 7.5 -28t31.5 -17l25 -4l93 -8l-10 -34h-466l9 36l56 3h17q36 0 59.5 7t37.5 32q5 9 10 25t7 31l137 640q4 18 4 25q0 6 -3.5 17t-13.5 16.5t-27 5.5q-13 0 -30 -4t-32 -9l-84 -29l-9 45z" />
    <glyph glyph-name="two" unicode="2" horiz-adv-x="699" 
d="M763 881q39 -55 39 -120q0 -75 -50 -155q-45 -72 -121 -134l-452 -373h338q30 0 43 1.5t31.5 12.5t35.5 32q13 16 30 44l35 56h49l-122 -245h-569l13 68l304 269q73 64 127 122q74 79 110 138q46 76 46 139q0 35 -15.5 65.5t-52 57.5t-88.5 27q-58 0 -110.5 -31
t-74.5 -83l-41 -99h-46l34 159l22 23q53 56 129 88.5t152 32.5q65 0 117 -23t87 -72z" />
    <glyph glyph-name="three" unicode="3" horiz-adv-x="697" 
d="M761 848q10 -31 10 -65q0 -90 -70.5 -159.5t-183.5 -93.5l-54 -12l35 -7q84 -16 141 -65.5t69 -128.5q3 -23 3 -42q0 -130 -125 -214q-116 -78 -269 -78q-72 0 -135 21l-50 17l-64 105l57 61l69 -78q36 -42 80 -61t98 -19q86 0 139 75q49 69 49 165q0 89 -38 141
q-46 63 -141 63l-73 6l15 56l51 5q97 10 167 75.5t83 152.5q3 20 3 40q0 42 -13 69q-16 32 -46.5 45.5t-63.5 13.5q-55 0 -105.5 -36t-84.5 -93l-12 -19l-38 23l24 104l50 22q47 20 100.5 31.5t103.5 11.5q81 0 136 -30q62 -34 83 -102z" />
    <glyph glyph-name="four" unicode="4" horiz-adv-x="763" 
d="M818 374l-22 -96l-140 1l-31 -147q-2 -11 -4.5 -23.5t-2.5 -18.5q0 -14 9 -27.5t39 -19.5l32 -4l37 -2l-7 -37h-413l9 36l48 3q39 0 63 6t44 28q9 9 14 27t7 30l32 149h-414l-6 43l217 233l398 407h75l-126 -588h142zM650 822l-282 -292l-88 -96l-55 -60h327z" />
    <glyph glyph-name="five" unicode="5" horiz-adv-x="662" 
d="M786 962l-63 -103h-301l-100 -193l48 -13q134 -34 224 -117q101 -93 101 -209q0 -62 -30 -125q-50 -107 -147 -164q-90 -53 -206 -53q-65 0 -129 16l-51 12l-68 99l33 51q3 5 7 10q4 4 11 5q5 0 10 -5t8 -7l83 -82q56 -55 142 -55q53 0 101.5 25t75.5 70q32 54 32 116
q0 94 -68 175t-172 111l-123 35l206 401h376z" />
    <glyph glyph-name="six" unicode="6" horiz-adv-x="754" 
d="M850 979l-15 -59l-35 -5q-149 -23 -259 -102q-101 -73 -179 -203q-16 -27 -27 -54.5t-21 -63.5l57 44q49 38 104 49q29 6 88 6q97 0 156 -57q66 -64 66 -184q0 -143 -116 -255t-261 -112q-134 0 -216 88q-78 84 -78 207q0 254 231 479q227 221 473 221zM651 350
q0 85 -37 134t-109 49q-114 0 -187 -94q-68 -88 -68 -205q0 -88 37 -143q42 -62 121 -62q101 0 174 104q69 98 69 217z" />
    <glyph glyph-name="seven" unicode="7" horiz-adv-x="668" 
d="M841 961l-14 -78l-103 -161l-93 -145l-106 -161l-283 -416h-133l331 452q72 99 139 202l134 206h-333q-24 0 -43 -3t-36 -15t-29 -29.5t-16 -33.5h-38l48 182h575z" />
    <glyph glyph-name="eight" unicode="8" horiz-adv-x="733" 
d="M809 792q0 -83 -62 -149q-53 -57 -143 -93l-42 -17l74 -48q62 -41 88.5 -85.5t26.5 -115.5q0 -123 -109.5 -210t-251.5 -87t-219 60.5t-77 163.5q0 89 62 162q54 63 143 102l67 29l-46 30q-47 31 -71 72q-27 46 -27 107q0 117 98.5 192.5t245.5 75.5q120 0 181.5 -51
t61.5 -138zM700 792q0 63 -38 103q-41 43 -110 43q-86 0 -140.5 -50.5t-54.5 -125.5q0 -58 35 -105q28 -38 83 -71l56 -34l32 22q69 46 100 92q37 54 37 126zM616 234q0 114 -130 197l-86 55l-28 -16q-68 -39 -110 -103q-47 -71 -47 -156q0 -74 45 -126q49 -57 130 -57
q102 0 166 63q60 59 60 143z" />
    <glyph glyph-name="nine" unicode="9" horiz-adv-x="757" 
d="M856 637q-39 -265 -266 -465q-215 -189 -436 -189l-33 -1l12 56l41 5q147 19 260 103q101 75 180 206q16 27 26 52t21 61l-52 -41q-36 -29 -90 -43q-43 -11 -94 -11q-36 0 -56 4q-81 12 -132 73q-54 64 -54 158q0 13 2 29t5 36q28 141 134 225t257 84q125 0 204 -90
q75 -85 75 -204q0 -12 -1.5 -26t-2.5 -22zM716 668q5 32 5 56q0 89 -43 150t-111 61q-99 0 -165 -84q-58 -74 -77 -188q-4 -20 -4 -46q0 -79 45.5 -133.5t125.5 -54.5q85 0 149 72q59 67 75 167z" />
    <glyph glyph-name="colon" unicode=":" horiz-adv-x="256" 
d="M279 639q29 -3 44.5 -24.5t15.5 -52.5q0 -38 -25.5 -68.5t-71.5 -30.5q-9 1 -13 1q-33 3 -50.5 24.5t-17.5 49.5q0 39 28.5 70.5t75.5 31.5q9 0 14 -1zM179 161q29 -3 44.5 -24.5t15.5 -52.5q0 -39 -25.5 -69.5t-71.5 -30.5q-9 1 -13 1q-33 3 -50.5 25t-17.5 50
q0 39 28.5 70.5t75.5 31.5q9 0 14 -1z" />
    <glyph glyph-name="semicolon" unicode=";" horiz-adv-x="274" 
d="M309 636q29 -3 44.5 -24.5t15.5 -52.5q0 -40 -24 -68q-27 -32 -74 -32q-9 1 -13 1q-33 4 -50.5 25t-17.5 50q0 39 28.5 70.5t76.5 31.5q9 0 14 -1zM251 61q-5 -22 -22 -44l-219 -271l-41 44l52 56q32 34 53 80q14 31 24 66q5 16 8 52.5t4 47.5t19 24l57 43q9 7 16 10
t16 0q11 -4 17 -18l12 -34q6 -20 6 -37q0 -13 -2 -19z" />
    <glyph glyph-name="less" unicode="&#x3c;" horiz-adv-x="788" 
d="M904 754l-22 -106l-608 -252l517 -267l-24 -108l-644 330l21 99z" />
    <glyph glyph-name="equal" unicode="=" horiz-adv-x="767" 
d="M855 572l-20 -92h-694l20 92h694zM799 311l-21 -96h-692l19 96h694z" />
    <glyph glyph-name="greater" unicode="&#x3e;" horiz-adv-x="788" 
d="M847 449l-21 -99l-761 -304l23 106l605 245l-514 273l23 109z" />
    <glyph glyph-name="question" unicode="?" horiz-adv-x="587" 
d="M711 785q0 -63 -36 -114q-30 -42 -92 -88l-117 -86q-21 -15 -36.5 -29.5t-32.5 -35.5q-28 -35 -42.5 -75.5t-21.5 -85.5h-58q8 92 64 187q18 31 48 63q52 56 54 58l70 84q25 30 39.5 75.5t14.5 93.5q0 58 -21 93q-24 40 -69 40q-37 0 -71 -21q-19 -12 -62 -51l-65 -58
l-56 36l75 102l58 18q57 18 114 18q105 0 171 -56q72 -61 72 -168zM283 158q29 -3 44.5 -24.5t15.5 -52.5q0 -39 -25.5 -69.5t-71.5 -30.5q-9 1 -13 1q-33 4 -50.5 25t-17.5 50q0 39 28.5 70.5t75.5 31.5q9 0 14 -1z" />
    <glyph glyph-name="at" unicode="@" horiz-adv-x="1082" 
d="M1155 663q0 -174 -142 -324q-137 -145 -281 -145q-51 0 -66 34q-8 18 -8 74l-53 -48q-66 -57 -148 -57q-56 0 -89 42.5t-33 103.5q0 135 136 250q126 107 248 107q41 0 60 -18q24 -23 24 -79l50 84h110l-204 -385q-4 -8 -9.5 -24t-5.5 -24q0 -23 23 -23q90 0 198 135
q114 142 114 282q0 120 -98 184q-83 54 -209 54q-208 0 -372 -165q-158 -159 -158 -346q0 -139 82 -226q88 -94 241 -94q123 0 226 49q73 35 130 91l42 49h87l-56 -65q-77 -77 -168 -123q-131 -66 -280 -66q-173 0 -277 101q-100 97 -100 252q0 247 183 429t434 182
q147 0 252 -73q117 -82 117 -218zM773 600q0 36 -15.5 51t-38.5 15q-73 0 -176.5 -134.5t-103.5 -226.5q0 -35 20 -53q17 -15 44 -15q72 0 171 135t99 228z" />
    <glyph glyph-name="A" unicode="A" horiz-adv-x="949" 
d="M944 34l-10 -34h-312l9 34l18 1q31 0 53 32q13 18 13 43q0 10 -1 16l-17 183h-344l-93 -167q-11 -18 -15 -32.5t-4 -27.5q0 -21 11 -32q8 -7 17 -9.5t19 -3.5l17 -3l-9 -34h-263l9 34l27 4q20 0 50 20q34 23 62 72l477 832h80l110 -851q2 -17 16 -36q9 -12 22 -23
q23 -18 50 -18h8zM690 364l-48 468l-258 -468h306z" />
    <glyph glyph-name="B" unicode="B" horiz-adv-x="800" 
d="M859 751q-11 -85 -66.5 -144.5t-144.5 -83.5l-39 -11l40 -8q76 -17 124.5 -80.5t48.5 -141.5q0 -22 -4 -41q-21 -113 -139 -180q-107 -61 -249 -61h-405l9 34l51 4q21 0 35.5 5.5t27.5 19.5t17.5 32.5t5.5 27.5l154 731q3 12 3 21t-4 17q-7 15 -23.5 21.5t-38.5 6.5h-37
l6 42h386q112 0 178 -48t66 -134q0 -7 -1 -15.5t-1 -13.5zM695 863q-21 31 -50.5 43t-73.5 12h-98l-82 -392h91q35 0 67 6t64 26q49 30 78 94q26 59 26 122q0 58 -22 89zM642 416q-26 35 -86 54q-44 14 -73 14h-100l-68 -299q-6 -23 -8.5 -37t-2.5 -29q0 -17 4.5 -30
t16 -25.5t33 -17t50.5 -4.5h68q84 0 144.5 77.5t60.5 172.5q0 35 -9.5 66t-29.5 58z" />
    <glyph glyph-name="C" unicode="C" horiz-adv-x="894" 
d="M1001 926q2 -4 2 -7v-7q0 -6 -1.5 -14t-1.5 -11l-23 -183h-37l-1 62q0 76 -40 119q-46 50 -141 50q-232 0 -358 -160q-112 -142 -112 -364q0 -380 289 -380q104 0 190 70q52 42 104 118l28 40l28 -11l-80 -199q-46 -30 -118 -46.5t-152 -16.5q-177 0 -293 91
q-142 111 -142 334q0 242 180.5 406.5t435.5 164.5q63 0 138 -13q97 -17 105 -43z" />
    <glyph glyph-name="D" unicode="D" horiz-adv-x="993" 
d="M1061 480q-44 -263 -232 -382q-154 -98 -400 -98h-405l9 34l52 4q34 0 58 26q10 11 16.5 26t10.5 35l153 731q2 12 2 18q0 8 -6 21.5t-20.5 19t-35.5 5.5h-41l10 42h402q190 0 298 -69q140 -89 140 -291q0 -60 -11 -122zM841 843q-42 46 -105 61q-45 11 -127 11h-23h-17
h-99l-153 -731q-3 -13 -5.5 -28t-2.5 -29q0 -17 3 -28t15.5 -24t40 -23t59.5 -10h63q42 0 69 7t77 26q136 53 220 200q79 138 79 296q0 80 -23.5 151t-70.5 121z" />
    <glyph glyph-name="E" unicode="E" horiz-adv-x="780" 
d="M854 962l-46 -228h-35v59q0 31 -5.5 56t-18.5 42t-31 22.5t-43 5.5h-192l-84 -400h128h26q47 3 71 22q18 14 26 29.5t15 44.5l7 24h36l-63 -292h-32l-1 23q0 36 -3 55t-15 32.5t-31.5 15.5t-29.5 2h-144l-62 -288q-3 -12 -6 -31t-3 -36q0 -36 14.5 -52t38.5 -20t44 -4
h120q34 0 58.5 5t53.5 20q36 19 71 66q20 26 38 60l29 53h34l-88 -248h-696l9 34l40 6q24 3 42 9t28 15q25 21 33 61l146 726q4 18 4 26q0 12 -6 23.5t-26.5 15.5t-41.5 4h-32l7 42h616z" />
    <glyph glyph-name="F" unicode="F" horiz-adv-x="679" 
d="M845 962l-45 -228h-35v59q0 31 -5.5 56t-18.5 42t-31 22.5t-43 5.5h-192l-89 -430h131q25 0 40 2q38 5 56 19.5t28 33.5q7 13 15 41l7 24h35l-61 -295h-35v26q0 36 -3 55t-15 33t-31 15.5t-30 1.5h-147l-69 -332q-4 -16 -4 -29q0 -17 10 -26q23 -21 53 -21l45 -3l-8 -34
h-374l10 34l48 6q33 0 59 21q10 8 17.5 26t12.5 40l149 724q4 18 4 26q0 12 -5.5 22t-22 15t-46.5 5l-32 1l6 42h616z" />
    <glyph glyph-name="G" unicode="G" horiz-adv-x="1003" 
d="M1076 458l-9 -35l-46 -2q-22 0 -34.5 -2.5t-26.5 -13t-19 -24.5t-10 -39l-53 -293l-91 -32q-46 -16 -96.5 -23.5t-102.5 -7.5q-228 0 -345 132q-98 111 -98 282q0 237 174 404q180 173 449 173q65 0 144 -13q104 -17 111 -44q2 -8 2 -21q0 -10 -1 -16l-26 -184h-38l-2 62
q0 84 -50 128t-150 44q-221 0 -349 -167q-117 -153 -117 -385q0 -153 62 -243q76 -110 234 -110q61 0 99 24q22 14 48 48q12 18 23.5 48.5t18.5 69.5l24 124q2 11 5 23v10q0 9 -5.5 21t-24.5 17.5t-40 5.5h-38l9 39h369z" />
    <glyph glyph-name="H" unicode="H" horiz-adv-x="1021" 
d="M1192 962l-10 -42l-22 -1q-26 0 -45 -4.5t-30 -15.5q-19 -19 -25 -47l-152 -744q-3 -12 -3 -23q0 -15 10 -28q7 -9 14.5 -11.5t37.5 -5.5l45 -6l-10 -34h-370l10 34l29 2q43 0 75 21q13 9 19.5 20t9.5 29l80 386l-463 1l-80 -384l-3.5 -17.5t-1.5 -11.5q0 -12 7 -20
q12 -13 29.5 -18.5t41.5 -5.5l29 -2l-5 -34h-371l4 34l53 4q17 0 32.5 3t31.5 20q9 10 13 23q1 4 6 26l156 744q2 6 2 17q0 9 -4 17q-7 15 -22 20t-42 8l-40 4l10 42h372l-10 -42l-52 -6q-14 -2 -27 -3q-21 -5 -37 -22q-10 -12 -12 -15q-4 -6 -6 -20l-61 -306h465l56 302
q3 11 3 21q0 11 -5 21t-16 15t-30 7l-51 6l5 42h360z" />
    <glyph glyph-name="I" unicode="I" horiz-adv-x="457" 
d="M614 962l-9 -42l-46 -4q-25 0 -38.5 -3.5t-26.5 -17.5q-9 -9 -13 -19t-8 -28l-154 -744q-3 -14 -3 -26q0 -16 9.5 -24t25.5 -12.5t33 -5.5l40 -2l-10 -34h-367l5 34l51 5q20 0 34.5 4.5t25.5 16t15 21t8 25.5l154 748q2 14 2 19q0 9 -4 18q-7 14 -21.5 19t-37.5 5l-40 5
l7 42h368z" />
    <glyph glyph-name="J" unicode="J" horiz-adv-x="453" 
d="M615 962l-9 -42l-37 -4q-18 -2 -36 -3q-19 -3 -30.5 -13.5t-16.5 -23t-8 -28.5l-153 -715q-18 -81 -58 -150q-31 -53 -76 -100q-30 -32 -72.5 -63t-81.5 -47v30q47 51 85 119q20 37 40 93.5t29 99.5l156 736q2 9 3 13q2 9 2 13q0 6 -5 17.5t-24 17t-40 5.5l-34 3l7 42
h359z" />
    <glyph glyph-name="K" unicode="K" horiz-adv-x="968" 
d="M1018 962l-10 -42l-22 -5q-21 -7 -51 -28q-22 -15 -54 -42l-351 -295q79 -126 170 -244l97 -136q53 -71 116 -118l24 -18l-5 -36l-121 2q-14 -1 -21 -1q-3 0 -15.5 3t-38.5 28.5t-47 56.5l-270 407h-25l-83 -390q-3 -12 -3 -24q0 -18 8.5 -26.5t23.5 -12t36 -5.5l40 -2
l-10 -34h-367l5 34l51 5q20 0 34.5 4.5t25.5 16t15 21t8 25.5l161 748q2 12 2 18q0 10 -5 20q-8 15 -26 20.5t-42 5.5l-32 2l5 42h372l-10 -42l-50 -4q-22 0 -35 -4.5t-25.5 -17.5t-18.5 -31q-2 -6 -6 -24l-64 -292l18 2q21 4 40 19q14 13 21 19l405 375h130z" />
    <glyph glyph-name="L" unicode="L" horiz-adv-x="764" 
d="M804 251l-93 -251h-677l6 34l50 7q27 3 34 5q16 5 26 15.5t15.5 22t8.5 24.5l159 745q3 12 3 20q0 9 -4 17q-7 15 -23.5 20.5t-39.5 5.5l-40 4l7 42h372l-9 -42l-44 -4q-24 -2 -39 -6t-28 -18q-9 -10 -13 -19t-8 -28l-147 -670q-3 -13 -5 -25t-2 -24q0 -30 19 -52
q11 -12 33.5 -16.5t51.5 -4.5h95q47 0 76.5 6t59 25t55.5 54q13 18 30 49l34 64h37z" />
    <glyph glyph-name="M" unicode="M" horiz-adv-x="1216" 
d="M1380 962l-5 -42l-26 -2q-25 0 -48 -8.5t-34.5 -21t-22 -35t-14.5 -46.5l-128 -700q-2 -12 -2 -18q0 -14 8.5 -26.5t21 -17t30.5 -6.5l45 -5l-9 -34h-368l6 34l29 1q24 0 40 2t38 17t31 61l117 650l-469 -766h-35l-210 707l-95 -578q-2 -12 -2 -24q0 -14 2.5 -23
t10.5 -17q12 -12 34 -19.5t44 -7.5l28 -3l-9 -34h-326l7 34l24 2q23 0 45 8.5t40 26.5q11 11 20 31q6 14 10 31l140 666q0 20 -13.5 48.5t-35.5 46.5q-16 13 -40.5 19.5t-53.5 6.5l10 42h226l223 -779l485 779h231z" />
    <glyph glyph-name="N" unicode="N" horiz-adv-x="1034" 
d="M1214 962l-9 -42l-22 -2q-18 -2 -25.5 -4t-20.5 -11q-23 -15 -33.5 -35.5t-17.5 -57.5l-171 -810h-70l-432 757l-106 -625q-2 -13 -2 -23q0 -13 2.5 -23t9.5 -17q16 -15 41 -23.5t48 -8.5l36 -3l-8 -34h-331l7 34l28 2q19 0 38 11t34 29q10 13 16 29.5t8 31.5l144 677
q-5 18 -23.5 42.5t-38.5 41.5q-16 13 -33.5 17.5t-45.5 4.5h-23l5 42h238l446 -782l114 628q3 15 3 28q0 27 -17 50q-13 16 -36 23.5t-52 7.5l-34 3l11 42h322z" />
    <glyph glyph-name="O" unicode="O" 
d="M1058 578q0 -243 -146 -413q-156 -182 -406 -182q-165 0 -263 116t-98 307q0 241 157 411q152 165 358 165q193 0 295.5 -105.5t102.5 -298.5zM906 587q0 166 -54 251q-61 95 -192 95q-149 0 -262 -163t-113 -379q0 -158 61 -254q69 -109 202 -109q163 0 265 176
q93 161 93 383z" />
    <glyph glyph-name="P" unicode="P" horiz-adv-x="757" 
d="M857 821q16 -38 16 -79q0 -75 -50 -149q-44 -65 -109 -106q-57 -35 -110 -52.5t-114 -17.5h-51l9 36l46 3q26 0 50 7.5t72 36.5q55 35 86 100t31 131q0 49 -16 85q-20 47 -58 73q-44 30 -107 30h-78l-172 -815l-2 -12v-11q0 -19 8 -27q20 -18 59 -18l40 -2l-10 -34h-368
l6 34l50 5q21 0 35.5 4.5t26.5 17.5q8 9 13.5 20.5t8.5 24.5l158 746q2 10 2 14q0 9 -9 23q-5 9 -16 15q-16 9 -43 12l-37 4l5 42h332q102 0 171 -26q92 -35 125 -115z" />
    <glyph glyph-name="Q" unicode="Q" horiz-adv-x="989" 
d="M1164 -221l-96 -29q-22 -6 -32.5 -7.5t-29.5 -1.5q-22 0 -52.5 13t-66.5 35l-312 196l-20 -2l-27 -2q-200 0 -299 125q-85 108 -85 290q0 232 145 405q151 181 371 181q200 0 301 -109q95 -102 95 -291q0 -191 -98 -348q-101 -162 -268 -222l216 -121q43 -24 74.5 -37
t79.5 -26q30 -8 48 -12t47 -8zM911 582q0 184 -72 273q-63 78 -179 78q-160 0 -270 -176q-102 -163 -102 -361q0 -170 68.5 -269.5t189.5 -99.5q175 0 277 183q88 159 88 372z" />
    <glyph glyph-name="R" unicode="R" horiz-adv-x="892" 
d="M855 22l-5 -24h-100q-14 0 -29 3.5t-31 12.5q-32 18 -48 57l-154 368h-114l-70 -333q-3 -12 -3 -24q0 -19 11 -29q22 -16 58 -16l38 -3l-6 -34h-368l6 34l50 5q21 0 35.5 4.5t26.5 17.5q8 9 13.5 20.5t8.5 24.5l155 741q4 18 4 26q0 9 -4 17q-7 15 -20.5 19t-42.5 7
l-37 4l5 42h309q88 0 153 -21q84 -27 119 -85q30 -49 30 -107q0 -60 -33.5 -119.5t-88.5 -104.5q-24 -20 -48.5 -33t-56.5 -22l-24 -7l166 -321q13 -25 26.5 -44.5t31.5 -40t37 -35.5zM682 856q-20 34 -54 47t-82 13h-69l-91 -427h74q42 0 72 7.5t64 27.5q51 31 81 95.5
t30 131.5q0 64 -25 105z" />
    <glyph glyph-name="S" unicode="S" horiz-adv-x="627" 
d="M707 943l-39 -185h-34l-1 41q0 55 -34.5 94.5t-90.5 39.5q-77 0 -128.5 -44t-51.5 -108q0 -39 7 -59.5t39 -53.5l162 -169q53 -56 77 -102q33 -64 33 -142q0 -113 -96.5 -191.5t-227.5 -78.5q-80 0 -136.5 12.5t-120.5 37.5l46 209h34v-59q0 -71 48 -111t129 -40t136 56
t55 130q0 57 -38 115q-28 43 -94 110l-96 97q-49 50 -65 83.5t-16 88.5q0 124 97 197q92 69 235 69q87 0 124.5 -9.5t46.5 -27.5z" />
    <glyph glyph-name="T" unicode="T" horiz-adv-x="922" 
d="M1088 962l-50 -220h-32v24q0 44 -7 71.5t-33 49.5q-15 13 -41.5 16.5t-65.5 3.5h-134l-171 -803q-2 -11 -3 -16q-1 -6 -1 -11q0 -14 10 -23q23 -18 59 -18l40 -2l-10 -34h-368l6 34l50 5q21 0 35 4.5t27 17.5q8 9 13.5 20.5t8.5 24.5l170 803h-113q-69 0 -118 -9.5
t-73 -37.5q-15 -17 -22 -30.5t-16 -38.5l-18 -53h-33l46 222h844z" />
    <glyph glyph-name="U" unicode="U" horiz-adv-x="964" 
d="M1144 962l-8 -42l-28 -3q-39 -4 -46 -5q-23 -5 -38 -19q-8 -8 -12 -17.5t-8 -26.5l-117 -509q-41 -180 -126 -264q-92 -91 -254 -91q-144 0 -222 68.5t-78 189.5q0 39 9 84l112 527q3 12 3 21t-4 16q-7 15 -21.5 20t-39.5 5l-40 4l10 42h368l-9 -42l-51 -6
q-21 0 -36 -5.5t-28.5 -20.5t-17.5 -40l-111 -519q-9 -39 -9 -79q0 -81 43 -126q52 -54 166 -54q122 0 190 91q50 67 81 205l107 475q2 6 3 14.5t1 14.5q0 13 -4 21q-9 17 -29.5 22.5t-43.5 5.5l-30 1l7 42h311z" />
    <glyph glyph-name="V" unicode="V" horiz-adv-x="964" 
d="M1149 962l-7 -42q-26 -5 -51 -17q-33 -16 -59 -46q-17 -19 -36 -52l-464 -808h-89l-130 822q-4 26 -17 49t-34 39q-8 6 -15.5 8.5t-20.5 4.5l10 42h350l-9 -42l-21 -2q-36 -4 -51 -10.5t-28 -19.5q-24 -25 -24 -65q0 -13 1 -19l91 -678l366 660q18 32 18 64q0 19 -7 33
q-10 19 -32.5 27t-45.5 8l-25 2l9 42h321z" />
    <glyph glyph-name="W" unicode="W" horiz-adv-x="1474" 
d="M1659 962l-8 -42q-31 -6 -59.5 -22t-47.5 -37t-50 -80l-416 -781h-61l-136 716l-420 -716h-63l-56 789q0 31 -14 60.5t-33 46.5q-28 24 -63 24l9 42h360l-5 -42h-13q-22 0 -40.5 -6t-29.5 -15q-41 -38 -41 -91l35 -621l434 756h31l138 -762l313 610q5 11 10 30t5 34
q0 14 -5 24q-12 20 -34.5 28.5t-47.5 10.5l-27 2l10 42h325z" />
    <glyph glyph-name="X" unicode="X" horiz-adv-x="1017" 
d="M1109 962l-6 -42l-19 -2q-15 0 -31.5 -5t-25.5 -10q-43 -23 -58 -34q-23 -17 -51 -48l-253 -286l202 -407q8 -17 24 -35q13 -15 27.5 -25t28.5 -16t29 -10l30 -8l-8 -34h-357l8 34h20q20 0 36.5 10.5t28.5 27.5q5 6 5 19q0 16 -7 30l-162 337l-267 -312
q-15 -18 -23.5 -38.5t-8.5 -35.5q0 -11 3 -17.5t9 -11t15 -6.5l20 -3l-10 -34h-273l9 34l20 3q30 5 58 19t56 38t57 57l312 353l-156 318q-15 31 -33 51.5t-40 33.5q-12 7 -20 9.5t-17 2.5l-13 1l8 42h332l-3 -42l-26 -1q-31 0 -47.5 -23.5t-16.5 -44.5q0 -11 5 -24
q2 -5 7 -15l116 -226l221 255q11 13 17 23t6 20q0 7 -3 15q-7 16 -30 19l-16 2l6 42h265z" />
    <glyph glyph-name="Y" unicode="Y" horiz-adv-x="898" 
d="M1081 962l-10 -42l-14 -2q-15 -1 -23.5 -5t-26.5 -14.5t-32 -23t-30 -34.5l-310 -409q-17 -23 -28 -48q-4 -10 -7.5 -21.5t-7.5 -29.5l-49 -225q-3 -12 -3 -23q0 -18 11 -28q8 -7 24 -11t34 -6l39 -6l-10 -34h-367l5 34l51 7q22 3 35 6.5t27 15.5q9 7 13.5 18.5t7.5 26.5
l60 274l-138 462q-5 18 -14 30q-4 5 -14.5 16.5t-26 19.5t-31.5 8l-17 2l5 42h338l-10 -42l-15 -1q-22 0 -38 -5.5t-27 -18.5q-17 -18 -17 -47q0 -12 3 -23l113 -376l266 361q12 16 18.5 30t6.5 29q0 10 -5 22t-20 19.5t-36 7.5l-21 2l7 42h284z" />
    <glyph glyph-name="Z" unicode="Z" horiz-adv-x="815" 
d="M958 962l-9 -38l-723 -870h351q49 0 76.5 6t60.5 29t51.5 52.5t29.5 73.5l5 24h36l-51 -239h-723l-16 40l734 870h-294q-45 0 -68.5 -4t-49.5 -21t-44.5 -48.5t-28.5 -69.5l-5 -18h-35l48 213h655z" />
    <glyph glyph-name="bracketleft" unicode="[" horiz-adv-x="358" 
d="M519 993l-7 -30h-88q-28 0 -42.5 -3t-26.5 -17q-7 -9 -10 -17t-6 -27l-191 -927q-2 -8 -2 -12q-1 -6 -1 -11q0 -11 6.5 -21.5t17 -13.5t31.5 -3h97l-8 -32h-256l230 1114h256z" />
    <glyph glyph-name="backslash" unicode="\" horiz-adv-x="633" 
d="M593 0h-85l-300 965h87z" />
    <glyph glyph-name="bracketright" unicode="]" horiz-adv-x="336" 
d="M509 995l-229 -1114h-256l7 30h87q29 0 43 3t26 17q7 7 10 16.5t7 26.5l190 927q3 12 3 23q0 13 -5.5 21.5t-14.5 12.5t-35 4h-96l8 33h255z" />
    <glyph glyph-name="asciicircum" unicode="^" horiz-adv-x="496" 
d="M615 782h-45l-148 138l-185 -139h-47l198 225h87z" />
    <glyph glyph-name="underscore" unicode="_" horiz-adv-x="909" 
d="M915 -169h-915v86h915v-86z" />
    <glyph glyph-name="grave" unicode="`" horiz-adv-x="377" 
d="M514 768h-54l-218 162q-5 3 -5 10q-1 5 3 10q3 4 10 9l44 36q12 10 19 10t12 -7z" />
    <glyph glyph-name="a" unicode="a" horiz-adv-x="716" 
d="M748 99l-229 -118q-16 -8 -27 11t-11 44q0 15 4 31.5t6 27.5l45 212l-88 -120q-59 -82 -138.5 -143t-130.5 -61q-6 0 -13 2t-14 5q-31 18 -47 61t-16 103q0 114 52 230q59 131 160 209q120 92 275 92h167l-113 -508q-4 -16 -7.5 -34t-3.5 -29q0 -10 3 -19t18 -9
q13 0 20 4l76 37zM608 633q-14 2 -30 2q-29 0 -68 -4t-74 -11q-101 -19 -167 -158q-57 -120 -57 -248q0 -55 12.5 -87.5t38.5 -37.5q54 -9 159 123q110 138 146 273z" />
    <glyph glyph-name="b" unicode="b" horiz-adv-x="758" 
d="M773 676q26 -35 38.5 -76.5t12.5 -88.5q0 -179 -150 -343q-154 -169 -336 -169l-188 1l196 886q4 22 4 30q0 7 -3.5 15.5t-13.5 12.5t-38 4l-66 -3l3 31l263 32l-124 -558l81 96q52 63 121 110q77 52 133 52q43 0 67 -32zM644 613q-9 4 -23 4q-69 0 -160 -120t-125 -244
l-51 -189q40 -10 78 -10q36 0 81 9q109 21 186 163q69 128 69 256q0 51 -13.5 85.5t-41.5 45.5z" />
    <glyph glyph-name="c" unicode="c" horiz-adv-x="567" 
d="M667 671l-17 -86l-43 -22l-23 30q-22 28 -45.5 41t-58.5 13q-92 0 -164 -108q-63 -95 -80 -220q-5 -35 -5 -65q0 -72 23 -118q27 -55 84 -64q8 -1 15 -2h14q39 0 77 21l126 68l21 -25l-196 -119q-52 -31 -116 -31q-47 0 -72 17q-56 35 -81 91t-25 127q0 58 15 115
q32 121 114 214q91 102 220 141q48 15 93 15q30 0 54 -5.5t54 -19.5z" />
    <glyph glyph-name="d" unicode="d" horiz-adv-x="738" 
d="M831 1009l-186 -827q-4 -17 -6.5 -31t-2.5 -28q0 -16 4.5 -24t16.5 -7l20 6l71 34l16 -26l-236 -124l-15 17q-11 14 -11 47q0 12 2 27.5t5 29.5l49 212l-78 -110q-58 -81 -149 -149.5t-146 -68.5q-15 0 -26 6q-35 20 -53.5 69t-18.5 117q0 114 49 224q55 124 155 198
q116 86 272 86h73l47 202q4 18 4 25q0 8 -4 20t-22.5 14.5t-29.5 2.5l-68 -3l8 33zM628 637q-8 1 -17.5 2t-23.5 1q-45 0 -87.5 -5.5t-81.5 -21.5q-92 -35 -149 -162q-51 -113 -51 -228q0 -56 13.5 -91t41.5 -39q55 -10 164 123q113 138 151 276z" />
    <glyph glyph-name="e" unicode="e" horiz-adv-x="581" 
d="M658 606q0 -111 -86.5 -180.5t-221.5 -69.5q-23 0 -50 3t-54 8q-7 -25 -10 -48.5t-3 -54.5q0 -194 136 -194q28 0 38 3t39 18l126 68l22 -25l-179 -108q-37 -22 -71.5 -33.5t-67.5 -11.5q-76 0 -126 76q-46 70 -46 159q0 180 134.5 335.5t295.5 155.5q56 0 90 -26t34 -75
zM553 606q0 56 -53 56q-62 0 -138.5 -78.5t-103.5 -164.5l-7 -22l25 -3q26 -3 48 -3q109 0 171 63q58 59 58 152z" />
    <glyph glyph-name="f" unicode="f" horiz-adv-x="486" 
d="M816 986l-19 -93l-33 -16q-44 78 -130 78q-63 0 -106 -52q-35 -43 -55 -117l-27 -100h208l-7 -33l-32 -22h-178q-33 -174 -60 -286.5t-77 -290.5q-29 -104 -59.5 -202t-67.5 -203h-65l199 980h-132l14 57h131l8 31q32 120 125 202q100 88 229 88q40 0 68 -4t66 -17z" />
    <glyph glyph-name="g" unicode="g" horiz-adv-x="629" 
d="M741 677l-33 -43h-124q14 -27 20 -47.5t6 -50.5q0 -74 -36.5 -127t-107.5 -93l-75 -41q-21 -11 -32.5 -22t-14.5 -23.5t-3 -24.5q0 -19 9.5 -35t28.5 -31l115 -91q44 -34 65 -82q13 -27 13 -57q0 -89 -111 -159q-105 -66 -220 -66q-112 0 -178 26q-89 35 -96 116
q0 68 77 132q51 42 108 66l115 46l-26 21q-9 6 -16 18.5t-7 24.5q0 18 12 37q9 14 30 33l76 69h-35q-73 0 -110 34q-22 21 -33 50.5t-11 61.5q0 100 81 189q85 93 193 93q17 0 44.5 -4.5t63.5 -21.5h78q21 0 34 2t39 7l40 13zM483 448q12 39 12 79q0 45 -14 79.5t-36.5 42
t-38.5 7.5q-52 0 -94 -51q-38 -47 -49 -110q-3 -18 -4 -26t-1 -25q0 -49 17 -83.5t55 -44.5q14 -3 26 -3q46 0 80 42q29 35 47 93zM447 -147q0 49 -41 94q-12 13 -46 42l-66 58l-86 -40q-81 -37 -106.5 -70t-25.5 -74q0 -61 49.5 -99t120.5 -38q65 0 125 29q76 36 76 98z
" />
    <glyph glyph-name="h" unicode="h" horiz-adv-x="815" 
d="M840 105l-221 -113q-6 -3 -11 -3q-14 0 -24 15t-10 36q0 18 3.5 39.5t10.5 47.5l98 393q7 28 7 52q0 15 -2.5 23t-13 15t-24.5 7q-74 0 -186 -136q-117 -142 -152 -289l-46 -192h-122l205 906q4 19 -7 34q-7 8 -21 8h-16h-78l6 31l261 31l-138 -615l59 80q70 96 160 160
q97 69 174 69q12 0 33.5 -5t31.5 -23.5t10 -47.5q0 -22 -2 -35t-8 -36l-101 -406l-6 -33q0 -14 11 -21q8 -4 16 -4q9 0 17 4l75 36z" />
    <glyph glyph-name="i" unicode="i" horiz-adv-x="404" 
d="M402 981q25 -2 38 -19t13 -42q0 -38 -27 -71.5t-69 -33.5q-27 0 -42.5 20.5t-15.5 50.5q0 38 22 64q26 31 70 31h11zM421 100l-231 -119q-17 17 -20 21q-12 17 -12 37q0 22 4.5 44.5l7.5 38.5l100 444q4 18 -4 25.5t-20 7.5q-10 0 -25 -5l-65 -21l-9 29l250 97
q6 -6 10.5 -12t4.5 -19q0 -10 -4 -29l-6 -29l-104 -464q-2 -8 -3.5 -16.5t-1.5 -13.5q0 -15 11 -22q5 -4 15 -4t18 4l73 33z" />
    <glyph glyph-name="j" unicode="j" horiz-adv-x="330" 
d="M394 980q25 -2 38 -19t13 -42q0 -38 -27 -71.5t-69 -33.5q-27 0 -42.5 20.5t-15.5 50.5q0 38 23.5 67t67.5 29q8 -1 12 -1zM404 667q0 -10 -2 -21.5t-8 -36.5l-134 -582q-17 -73 -44 -130.5t-68 -110.5q-32 -42 -66 -70q-29 -24 -82 -54l6 39l24.5 35.5t19.5 32.5
q26 45 44 96q15 42 27 94l141 607q3 17 -5 25t-19 8q-8 0 -24 -6l-66 -21l-9 29l250 97q6 -6 10.5 -12t4.5 -19z" />
    <glyph glyph-name="k" unicode="k" horiz-adv-x="744" 
d="M753 697l-11 -55q-18 -3 -33 -9t-29 -15q-9 -6 -27 -21l-214 -187l274 -388l-15 -22h-88q-17 0 -30 8q-6 4 -10 9q-2 2 -9 13l-214 325l-81 -355h-122l198 894q1 4 1 14q0 17 -5.5 24t-13 8.5t-23.5 1.5h-75l6 31l251 31l-118 -571q14 -1 24 2q17 6 39 28l231 234h94z
" />
    <glyph glyph-name="l" unicode="l" horiz-adv-x="413" 
d="M488 1003l-187 -824q-3 -11 -6.5 -29.5t-3.5 -27.5q0 -10 3 -19.5t18 -9.5q13 0 27 6l66 32l15 -28l-231 -120q-19 14 -25 22q-10 13 -10 33q0 19 1 30.5t5 28.5l179 786q4 20 4 26q0 7 -4 18.5t-22.5 14t-29.5 2.5l-68 -2l9 32z" />
    <glyph glyph-name="m" unicode="m" horiz-adv-x="1213" 
d="M1231 100l-235 -121q-14 12 -20 20q-12 17 -12 37q0 24 5.5 47.5l9.5 39.5l97 397q7 30 7 53q0 15 -2.5 23t-12 14.5t-24.5 6.5q-68 0 -172 -139t-150 -290l-58 -188h-117l139 515q6 24 6 50q0 37 -13 45.5t-28 8.5q-74 0 -186 -139q-117 -144 -153 -292l-45 -188h-122
l125 570q2 8 2 14q0 8 -4 12q-8 7 -20 7q-8 0 -24 -4l-68 -22l-10 27l255 98q3 -4 6 -7q8 -9 8 -24q0 -11 -5 -30.5t-6 -27.5l-51 -223l58 80q70 98 159 163q97 71 173 71q12 0 34 -5t32.5 -25t10.5 -48q0 -17 -3 -33t-8 -35l-51 -167l57 83q66 95 156 161q96 70 171 70
q12 0 33.5 -5t31.5 -23.5t10 -47.5q0 -16 -2.5 -32.5t-7.5 -38.5l-100 -411q-4 -13 -5 -20t-1 -13q0 -14 11 -21q7 -4 15 -4t15 4l77 35z" />
    <glyph glyph-name="n" unicode="n" horiz-adv-x="817" 
d="M831 104l-235 -121q-17 17 -20 21q-12 16 -12 37q0 23 5.5 46.5l9.5 39.5l98 392q7 30 7 52q0 28 -14 38q-9 6 -23 6q-71 0 -188 -143q-121 -147 -153 -280l-46 -192h-122l128 570q3 15 -5 24t-19 9q-7 0 -25 -6l-65 -21l-9 29l250 97q6 -6 10.5 -12t4.5 -19
q0 -12 -3 -26q-6 -21 -8 -32l-47 -219l58 80q72 99 162 163q94 67 171 67q19 0 38 -5t29 -23.5t10 -47.5q0 -16 -2.5 -32.5t-7.5 -38.5l-101 -406q-6 -20 -6 -32q0 -15 12 -22q8 -3 14 -3q7 0 16 3l76 35z" />
    <glyph glyph-name="o" unicode="o" horiz-adv-x="668" 
d="M712 457q0 -173 -106 -318q-115 -158 -277 -158q-111 0 -168 83q-51 74 -51 194q0 165 110 301q115 142 269 142q223 0 223 -244zM589 514q0 144 -100 144q-122 0 -192 -152q-62 -134 -62 -317q0 -92 33 -128q28 -31 82 -31q84 0 143 94q48 77 75 203q21 100 21 187z" />
    <glyph glyph-name="p" unicode="p" horiz-adv-x="671" 
d="M669 684q29 -28 44 -72.5t15 -98.5q0 -163 -105 -316q-116 -170 -290 -202q-21 -4 -43 -4q-12 0 -24 0.5t-25 0.5l-19 1l-46 -216l-4.5 -22t-1.5 -15q0 -18 13 -34q8 -10 23.5 -13.5t38.5 -3.5l48 -2l-10 -36h-351l6 35l26 2q35 0 58 17q13 11 21 29q5 13 11 39l157 724
l-103 -50l8 49l110 53l38 177l134 52l-38 -167l158 73q21 10 41.5 14t41.5 4q23 0 41.5 -5t26.5 -13zM507 622q-13 0 -40 -10q-8 -3 -23 -10l-96 -43l-112 -509l20 -5q16 -4 32 -4q14 0 24.5 1.5l23.5 3.5q108 14 192 161q77 135 77 270q0 66 -24 105.5t-74 39.5z" />
    <glyph glyph-name="q" unicode="q" horiz-adv-x="692" 
d="M764 690l-208 -930q-2 -14 -2 -20q0 -20 11 -33t45 -13l33 -1l-10 -42h-348l9 42l34 1q30 0 46 2.5t30.5 12t22.5 26.5q5 11 11 37l118 532q-84 -127 -163 -206q-64 -64 -125 -96q-46 -24 -80 -24q-9 0 -13 1q-35 8 -55 58.5t-20 124.5q0 76 22 153t67 140
q81 113 173 169q107 65 248 65zM627 631q-12 3 -47 3q-26 0 -62 -3t-63 -8q-104 -20 -173 -151q-62 -117 -62 -243q0 -55 14 -92t43 -51q25 -12 91 48t127 152q68 103 92 192z" />
    <glyph glyph-name="r" unicode="r" horiz-adv-x="502" 
d="M621 706l-26 -122l-34 -21l-14.5 14t-16.5 9q-4 1 -13 1q-66 0 -133 -140q-61 -126 -96 -304l-29 -143h-122l128 570q3 17 -5 25t-19 8q-7 0 -25 -6l-65 -21l-9 29l250 97q6 -6 10.5 -12t4.5 -19q0 -23 -11 -58l-47 -152l46 69q47 70 60 87q58 74 136 86z" />
    <glyph glyph-name="s" unicode="s" horiz-adv-x="494" 
d="M541 677l-28 -133h-33l-2 24q0 43 -32.5 69t-76.5 26q-41 0 -71.5 -34.5t-30.5 -78.5q0 -24 5.5 -39.5t25.5 -35.5l134 -135q34 -34 50 -65t16 -75q0 -97 -88 -159q-81 -57 -187 -57q-49 0 -95.5 11.5t-77.5 28.5l33 150h29l1 -27q0 -51 33 -84t88 -33q64 0 106.5 38
t42.5 97q0 34 -11 56t-39 50l-110 109q-30 30 -47 63t-17 72q0 79 65 134.5t163 55.5q44 0 90 -9.5t64 -18.5z" />
    <glyph glyph-name="t" unicode="t" horiz-adv-x="508" 
d="M624 685l-3 -29l-53 -28h-152l-93 -413q-5 -20 -8.5 -41t-3.5 -37q0 -37 23 -55q20 -14 45 -14q14 0 34 5t31 8l71 20l8 -37l-266 -83q-12 4 -21.5 9t-21.5 14q-20 15 -28.5 35.5t-8.5 45.5q0 26 7 58q11 41 15 61l94 423h-121l15 58h120l29 132q28 14 49 30q30 23 50 48
h38l-45 -210h196z" />
    <glyph glyph-name="u" unicode="u" horiz-adv-x="835" 
d="M844 98l-230 -120q-11 6 -20 14q-14 14 -16 23.5t-2 17.5q0 7 2 21t4 22l41 185l-46 -59q-74 -93 -164 -156q-97 -68 -173 -68q-16 0 -35 4t-29 23.5t-10 50.5q0 16 2.5 33.5t7.5 40.5l94 413l6 33q0 15 -10 19t-15 4q-8 0 -17 -3l-78 -23l-9 30l256 98q10 -11 12 -20
q1 -3 1 -13q0 -12 -3 -26l-105 -460q-6 -23 -6 -48q0 -19 4.5 -33t15 -19t25.5 -5q76 0 178 120q108 126 143 273l52 215h120l-124 -557q-2 -14 -2 -21q0 -12 7 -16.5t17 -4.5q14 0 32 9l60 31z" />
    <glyph glyph-name="v" unicode="v" horiz-adv-x="706" 
d="M789 587q0 -15 -17.5 -47t-44.5 -69l-352 -487h-42l-43 553q-3 36 -23 52.5t-44 16.5q-5 0 -17 -2l-39 -7l-12 28l227 76q9 -6 14 -13.5t6 -15.5t1 -19l36 -508l213 305q10 14 18.5 34.5t10 34.5t1.5 30.5v22.5v85q0 22 3 27t14 9l24 7q16 4 21 2q7 -4 10 -14l26 -70
q5 -12 6 -15q3 -9 3 -16z" />
    <glyph glyph-name="w" unicode="w" horiz-adv-x="1066" 
d="M1160 587q0 -13 -21.5 -47.5l-42.5 -67.5l-304 -489h-41l-60 471l-297 -471h-41l-52 550q0 37 -27 58q-20 16 -44 16q-4 0 -16 -2l-48 -9l-3 30l224 76q9 -6 13 -14q8 -15 8 -34l43 -497l179 302q10 18 16.5 37t9 34t2.5 36q0 37 -13 75l135 62l66 -543l171 285
q12 20 19 39t11 38.5t4 48.5l-4 85q-1 9 -1 14q0 7 4 13t14 9l31 9q15 4 20 1q6 -2 10 -13l27 -71q7 -19 8 -31z" />
    <glyph glyph-name="x" unicode="x" horiz-adv-x="706" 
d="M719 58l-213 -82l-14 14q-11 16 -16 33l-77 243l-212 -241q-10 -12 -26.5 -18.5t-25.5 -6.5h-71q-7 0 -12.5 4.5t-5.5 14.5q0 4 2 12l8 31q2 6 10 14q4 4 9 6q2 1 19 6l73 23q9 3 17 7.5l17 9.5q23 13 44 37l139 156l-69 218q-4 14 -11.5 27t-15.5 21q-20 20 -46 20
q-7 0 -11 -1l-58 -12l-12 29l210 77q7 -6 12.5 -13.5t10.5 -20.5t5 -14l71 -239l101 118q9 11 16 22.5t14.5 29.5t7.5 46v24q0 11 1 16q2 8 8 14.5t15 8.5l25 7q15 4 20 2q6 -3 10 -14l18 -36q2 -6 5.5 -13t1.5 -17q-1 -12 -29.5 -44l-56.5 -62l-140 -158l57 -184
q10 -34 19 -50q13 -23 34 -35t50 -12q11 0 16 1l43 9z" />
    <glyph glyph-name="y" unicode="y" horiz-adv-x="715" 
d="M801 583q-2 -14 -24 -48q-7 -11 -44 -63l-445 -607q-25 -36 -37 -57q-15 -27 -29 -62q-4 -10 -12 -46t-14.5 -43.5t-21.5 -7.5h-31q-15 0 -22 7q-9 6 -9 18v45l1 16q2 10 9.5 19l12.5 15l197 229l-45 538q-3 33 -21.5 51t-43.5 18q-5 0 -19 -2l-38 -8l-13 29l218 80
l10 -8q8 -9 9.5 -27.5t2.5 -29.5l43 -498l198 275q16 23 28 44q17 31 25 60q3 10 4 23t1 30q0 12 -0.5 23t-0.5 20l-5 68l70 23l37 -90q4 -10 6.5 -18t2.5 -16z" />
    <glyph glyph-name="z" unicode="z" horiz-adv-x="610" 
d="M679 687l-1 -26l-477 -608h206q41 0 67 5.5t50 23.5q17 13 29.5 30t21.5 42l7 20h35l-40 -174h-514l-11 24l473 610h-170q-40 0 -57 -5t-32 -17q-25 -19 -40 -55l-11 -26h-33l34 156h463z" />
    <glyph glyph-name="braceleft" unicode="{" horiz-adv-x="378" 
d="M535 989l-6 -27l-22 -1q-15 0 -25.5 -3.5t-28.5 -12.5q-25 -14 -40 -53q-11 -27 -21 -79l-50 -244q-8 -41 -22 -71t-40 -51q-15 -12 -28 -19.5t-29 -12.5l-19 -5l19 -9q15 -6 24 -12.5t18 -19.5q16 -25 16 -63q0 -15 -2.5 -31.5t-4.5 -26.5l-50 -244q-5 -29 -7.5 -45
t-2.5 -33q0 -38 19 -53q8 -6 19.5 -8.5t26.5 -2.5h19l-6 -32h-50q-63 0 -100 37q-22 23 -22 75q0 25 6 54l56 262q2 10 3.5 27t1.5 29q0 10 -1 21t-4 19q-10 32 -35 42l-22 10l28 14q17 8 30 17.5t27 26.5t26 58l9 38l56 262q9 43 25 76t42.5 52.5t63.5 29t72 9.5h31z" />
    <glyph glyph-name="bar" unicode="|" horiz-adv-x="455" 
d="M336 -352h-87v1314h87v-1314z" />
    <glyph glyph-name="braceright" unicode="}" horiz-adv-x="378" 
d="M425 419l-29 -14q-17 -8 -30 -17t-27 -26.5t-26 -58.5q-3 -13 -9 -37l-56 -263q-9 -43 -25 -76t-43 -53t-62 -29.5t-72 -9.5h-32l6 28l22 1q15 0 25.5 3.5t28.5 12.5q25 14 40 53q11 27 21 79l50 244q10 45 22.5 72.5t39.5 50.5q15 11 28.5 19t28.5 12l19 6l-18 8
q-28 11 -42 32q-8 11 -12 28.5t-4 35.5q0 28 6 57l50 244q10 45 10 78q0 38 -19 53q-10 8 -24 9t-22 1h-19l6 33h50q66 0 98 -38q21 -24 21 -75q0 -12 -2 -28t-5 -34l-52 -253q-2 -11 -3 -24t-1 -31v-19t4 -22q10 -32 35 -42z" />
    <glyph glyph-name="asciitilde" unicode="~" horiz-adv-x="544" 
d="M711 963l-7 -20q-21 -52 -49 -80q-32 -32 -82 -42q-17 -3 -21 -4q-7 -1 -20 -1q-24 0 -54 12l-66 28q-37 16 -64 16q-11 0 -27.5 -4t-29 -11.5t-25.5 -24.5l-11 -15h-39l13 28q25 51 56 78q37 32 86 32q27 0 47 -4.5t48 -16.5l56 -25q27 -11 46 -11q10 0 24 3
q25 6 40.5 15.5t28.5 30.5l10 16h40z" />
    <glyph glyph-name="Adieresis" unicode="&#xc4;" horiz-adv-x="965" 
d="M944 34l-10 -34h-312l9 34l18 1q31 0 53 32q13 18 13 43q0 10 -1 16l-17 183h-344l-93 -167q-11 -18 -15 -32.5t-4 -27.5q0 -21 11 -32q8 -7 17 -9.5t19 -3.5l17 -3l-9 -34h-263l9 34l27 4q20 0 50 20q34 23 62 72l477 832h80l110 -851q2 -17 16 -36q9 -12 22 -23
q23 -18 50 -18h8zM690 364l-48 468l-258 -468h306zM901 1161q34 -13 34 -46q0 -29 -24.5 -54.5t-55.5 -25.5q-12 0 -26 6q-29 13 -29 45q0 29 22.5 54.5t53.5 25.5q12 0 25 -5zM637 1161q16 -6 24 -18t8 -27q0 -29 -23.5 -55t-54.5 -26q-12 0 -26 6q-29 13 -29 45
q0 30 22 55t53 25q15 0 26 -5z" />
    <glyph glyph-name="Aring" unicode="&#xc5;" horiz-adv-x="954" 
d="M782 1297q31 -14 46 -40.5t15 -59.5q0 -56 -39 -102.5t-97 -46.5q-32 0 -62.5 14.5t-45 39.5t-14.5 56q0 56 41 104t98 48q29 0 58 -13zM740 1259q-14 2 -20 2q-38 0 -60 -27.5t-22 -64.5q0 -54 45 -68q2 -1 11.5 -2.5t15.5 -1.5q37 0 59 28.5t22 65.5q0 26 -12.5 45
t-38.5 23zM945 28l-10 -34h-312l9 34l18 1q31 0 53 32q13 18 13 43q0 10 -1 16l-17 183h-344l-93 -167q-11 -18 -15 -32.5t-4 -27.5q0 -21 11 -32q8 -7 17 -9.5t19 -3.5l17 -3l-9 -34h-263l9 34l27 4q20 0 50 20q34 23 62 72l477 832h80l110 -851q2 -17 16 -36q9 -12 22 -23
q23 -18 50 -18h8zM691 358l-48 468l-258 -468h306z" />
    <glyph glyph-name="Ccedilla" unicode="&#xc7;" horiz-adv-x="907" 
d="M1004 891l-26 -184h-35l-3 57q0 79 -36 122q-43 52 -137 52q-200 0 -327 -127q-119 -119 -150 -323q-4 -22 -6 -50.5t-2 -53.5q0 -160 79 -256t214 -96q108 0 194 71q47 39 102 119l28 41l29 -12l-84 -208q-48 -19 -86.5 -30t-88.5 -19l-67 -8l-29 -54q10 1 18 1.5
t14 0.5q49 0 81.5 -15.5t32.5 -50.5q0 -65 -59 -106q-55 -38 -130 -38q-52 0 -91 19l-23 11l26 34l26 -7q36 -9 64 -9q32 0 56 18.5t24 49.5q0 24 -16 34.5t-40 10.5h-12q-8 -2 -11 -2l-26 -4l-7 11l52 98l-14 2q-80 9 -105 15q-81 19 -137 65q-83 68 -122 159
q-34 80 -34 176q0 19 1.5 39.5t5.5 45.5q34 222 210 359q171 133 404 133q64 0 138 -12q97 -16 104 -42q2 -12 2 -17q-1 -13 -1 -20z" />
    <glyph glyph-name="Eacute" unicode="&#xc9;" horiz-adv-x="793" 
d="M857 962l-46 -228h-35v59q0 31 -5.5 56t-18.5 42t-31 22.5t-43 5.5h-192l-84 -400h128h26q47 3 71 22q18 14 26 29.5t15 44.5l7 24h36l-63 -292h-32l-1 23q0 36 -3 55t-15 32.5t-31.5 15.5t-29.5 2h-144l-62 -288q-3 -12 -6 -31t-3 -36q0 -36 14.5 -52t38.5 -20t44 -4
h120q34 0 58.5 5t53.5 20q36 19 71 66q20 26 38 60l29 53h34l-88 -248h-696l9 34l40 6q24 3 42 9t28 15q25 21 33 61l146 726q4 18 4 26q0 12 -6 23.5t-26.5 15.5t-41.5 4h-32l7 42h616zM762 1208q0 -10 -7 -14l-263 -161h-54l246 228q7 7 12 7q9 0 20 -9l31 -31l10 -10.5
t5 -9.5z" />
    <glyph glyph-name="Ntilde" unicode="&#xd1;" horiz-adv-x="1033" 
d="M1211 962l-9 -42l-22 -2q-18 -2 -25.5 -4t-20.5 -11q-23 -15 -33.5 -35.5t-17.5 -57.5l-171 -810h-70l-432 757l-106 -625q-2 -13 -2 -23q0 -13 2.5 -23t9.5 -17q16 -15 41 -23.5t48 -8.5l36 -3l-8 -34h-331l7 34l28 2q19 0 38 11t34 29q10 13 16 29.5t8 31.5l144 677
q-5 18 -23.5 42.5t-38.5 41.5q-16 13 -33.5 17.5t-45.5 4.5h-23l5 42h238l446 -782l114 628q3 15 3 28q0 27 -17 50q-13 16 -36 23.5t-52 7.5l-34 3l11 42h322zM1037 1175l-7 -20q-21 -52 -49 -80q-32 -32 -82 -42q-17 -3 -21 -4q-7 -1 -20 -1q-24 0 -54 12l-66 28
q-37 16 -64 16q-11 0 -27.5 -4t-29 -11.5t-25.5 -24.5l-11 -15h-39l13 28q25 51 56 78q37 32 86 32q27 0 47 -4.5t48 -16.5l56 -25q27 -11 46 -11q10 0 24 3q25 6 40.5 15.5t28.5 30.5l10 16h40z" />
    <glyph glyph-name="Odieresis" unicode="&#xd6;" 
d="M1069 572q0 -243 -146 -413q-156 -182 -406 -182q-165 0 -263 116t-98 307q0 241 157 411q152 165 358 165q193 0 295.5 -105.5t102.5 -298.5zM917 581q0 166 -54 251q-61 95 -192 95q-149 0 -262 -163t-113 -379q0 -158 61 -254q69 -109 202 -109q163 0 265 176
q93 161 93 383zM857 1150q34 -13 34 -46q0 -29 -24.5 -54.5t-55.5 -25.5q-12 0 -26 6q-29 13 -29 45q0 29 22.5 54.5t53.5 25.5q12 0 25 -5zM593 1150q16 -6 24 -18t8 -27q0 -29 -23.5 -55t-54.5 -26q-12 0 -26 6q-29 13 -29 45q0 30 22 55t53 25q15 0 26 -5z" />
    <glyph glyph-name="Udieresis" unicode="&#xdc;" horiz-adv-x="960" 
d="M1140 956l-8 -42l-28 -3q-39 -4 -46 -5q-23 -5 -38 -19q-8 -8 -12 -17.5t-8 -26.5l-117 -509q-41 -180 -126 -264q-92 -91 -254 -91q-144 0 -222 68.5t-78 189.5q0 39 9 84l112 527q3 12 3 21t-4 16q-7 15 -21.5 20t-39.5 5l-40 4l10 42h368l-9 -42l-51 -6
q-21 0 -36 -5.5t-28.5 -20.5t-17.5 -40l-111 -519q-9 -39 -9 -79q0 -81 43 -126q52 -54 166 -54q122 0 190 91q50 67 81 205l107 475q2 6 3 14.5t1 14.5q0 13 -4 21q-9 17 -29.5 22.5t-43.5 5.5l-30 1l7 42h311zM901 1151q34 -13 34 -46q0 -29 -24.5 -54.5t-55.5 -25.5
q-12 0 -26 6q-29 13 -29 45q0 29 22.5 54.5t53.5 25.5q12 0 25 -5zM637 1151q16 -6 24 -18t8 -27q0 -29 -23.5 -55t-54.5 -26q-12 0 -26 6q-29 13 -29 45q0 30 22 55t53 25q15 0 26 -5z" />
    <glyph glyph-name="aacute" unicode="&#xe1;" horiz-adv-x="718" 
d="M748 93l-229 -118q-16 -8 -27 11t-11 44q0 15 4 31.5t6 27.5l45 212l-88 -120q-59 -82 -138.5 -143t-130.5 -61q-6 0 -13 2t-14 5q-31 18 -47 61t-16 103q0 114 52 230q59 131 160 209q120 92 275 92h167l-113 -508q-4 -16 -7.5 -34t-3.5 -29q0 -10 3 -19t18 -9
q13 0 20 4l76 37zM608 627q-14 2 -30 2q-29 0 -68 -4t-74 -11q-101 -19 -167 -158q-57 -120 -57 -248q0 -55 12.5 -87.5t38.5 -37.5q54 -9 159 123q110 138 146 273zM791 968q0 -10 -7 -14l-263 -161h-54l246 228q7 7 12 7q9 0 20 -9l31 -31l10 -10.5t5 -9.5z" />
    <glyph glyph-name="agrave" unicode="&#xe0;" horiz-adv-x="722" 
d="M748 99l-229 -118q-16 -8 -27 11t-11 44q0 15 4 31.5t6 27.5l45 212l-88 -120q-59 -82 -138.5 -143t-130.5 -61q-6 0 -13 2t-14 5q-31 18 -47 61t-16 103q0 114 52 230q59 131 160 209q120 92 275 92h167l-113 -508q-4 -16 -7.5 -34t-3.5 -29q0 -10 3 -19t18 -9
q13 0 20 4l76 37zM608 633q-14 2 -30 2q-29 0 -68 -4t-74 -11q-101 -19 -167 -158q-57 -120 -57 -248q0 -55 12.5 -87.5t38.5 -37.5q54 -9 159 123q110 138 146 273zM775 789h-54l-218 162q-5 3 -5 10q-1 5 3 10q3 4 10 9l44 36q12 10 19 10t12 -7z" />
    <glyph glyph-name="acircumflex" unicode="&#xe2;" horiz-adv-x="726" 
d="M748 99l-229 -118q-16 -8 -27 11t-11 44q0 15 4 31.5t6 27.5l45 212l-88 -120q-59 -82 -138.5 -143t-130.5 -61q-6 0 -13 2t-14 5q-31 18 -47 61t-16 103q0 114 52 230q59 131 160 209q120 92 275 92h167l-113 -508q-4 -16 -7.5 -34t-3.5 -29q0 -10 3 -19t18 -9
q13 0 20 4l76 37zM608 633q-14 2 -30 2q-29 0 -68 -4t-74 -11q-101 -19 -167 -158q-57 -120 -57 -248q0 -55 12.5 -87.5t38.5 -37.5q54 -9 159 123q110 138 146 273zM813 791h-45l-148 138l-185 -139h-47l198 225h87z" />
    <glyph glyph-name="adieresis" unicode="&#xe4;" horiz-adv-x="719" 
d="M748 99l-229 -118q-16 -8 -27 11t-11 44q0 15 4 31.5t6 27.5l45 212l-88 -120q-59 -82 -138.5 -143t-130.5 -61q-6 0 -13 2t-14 5q-31 18 -47 61t-16 103q0 114 52 230q59 131 160 209q120 92 275 92h167l-113 -508q-4 -16 -7.5 -34t-3.5 -29q0 -10 3 -19t18 -9
q13 0 20 4l76 37zM608 633q-14 2 -30 2q-29 0 -68 -4t-74 -11q-101 -19 -167 -158q-57 -120 -57 -248q0 -55 12.5 -87.5t38.5 -37.5q54 -9 159 123q110 138 146 273zM743 919q34 -13 34 -46q0 -29 -24.5 -54.5t-55.5 -25.5q-12 0 -26 6q-29 13 -29 45q0 29 22.5 54.5
t53.5 25.5q12 0 25 -5zM479 919q16 -6 24 -18t8 -27q0 -29 -23.5 -55t-54.5 -26q-12 0 -26 6q-29 13 -29 45q0 30 22 55t53 25q15 0 26 -5z" />
    <glyph glyph-name="atilde" unicode="&#xe3;" horiz-adv-x="720" 
d="M748 99l-229 -118q-16 -8 -27 11t-11 44q0 15 4 31.5t6 27.5l45 212l-88 -120q-59 -82 -138.5 -143t-130.5 -61q-6 0 -13 2t-14 5q-31 18 -47 61t-16 103q0 114 52 230q59 131 160 209q120 92 275 92h167l-113 -508q-4 -16 -7.5 -34t-3.5 -29q0 -10 3 -19t18 -9
q13 0 20 4l76 37zM608 633q-14 2 -30 2q-29 0 -68 -4t-74 -11q-101 -19 -167 -158q-57 -120 -57 -248q0 -55 12.5 -87.5t38.5 -37.5q54 -9 159 123q110 138 146 273zM821 937l-7 -20q-21 -52 -49 -80q-32 -32 -82 -42q-17 -3 -21 -4q-7 -1 -20 -1q-24 0 -54 12l-66 28
q-37 16 -64 16q-11 0 -27.5 -4t-29 -11.5t-25.5 -24.5l-11 -15h-39l13 28q25 51 56 78q37 32 86 32q27 0 47 -4.5t48 -16.5l56 -25q27 -11 46 -11q10 0 24 3q25 6 40.5 15.5t28.5 30.5l10 16h40z" />
    <glyph glyph-name="aring" unicode="&#xe5;" horiz-adv-x="718" 
d="M647 1058q30 -14 45.5 -41t15.5 -59q0 -56 -39 -102.5t-97 -46.5q-32 0 -63 15t-44.5 39t-13.5 55q0 57 40.5 105t99.5 48q27 0 56 -13zM606 1020q-14 2 -20 2q-38 0 -60 -27.5t-22 -64.5q0 -26 10.5 -44t34.5 -25q12 -4 27 -4q36 0 58.5 29.5t22.5 65.5q0 25 -13 44
t-38 24zM740 99l-229 -118q-16 -8 -27 11t-11 44q0 15 4 31.5t6 27.5l45 212l-88 -120q-59 -82 -138.5 -143t-130.5 -61q-6 0 -13 2t-14 5q-31 18 -47 61t-16 103q0 114 52 230q59 131 160 209q120 92 275 92h167l-113 -508q-4 -16 -7.5 -34t-3.5 -29q0 -10 3 -19t18 -9
q13 0 20 4l76 37zM600 633q-14 2 -30 2q-29 0 -68 -4t-74 -11q-101 -19 -167 -158q-57 -120 -57 -248q0 -55 12.5 -87.5t38.5 -37.5q54 -9 159 123q110 138 146 273z" />
    <glyph glyph-name="ccedilla" unicode="&#xe7;" horiz-adv-x="584" 
d="M670 672l-16 -87l-44 -22l-23 30q-22 28 -46 41t-58 13q-92 0 -164 -108q-63 -95 -80 -220q-5 -35 -5 -65q0 -72 23 -118q28 -55 85 -64q8 -1 15 -2h14q38 0 76 21l126 69l22 -26l-197 -119l-61 -26l-23 -47q8 1 15.5 1.5t17.5 0.5q46 0 78 -15.5t32 -50.5
q0 -66 -58 -105q-53 -36 -130 -36q-50 0 -89 16l-16 6l21 39l26 -7q32 -8 65 -8q32 0 54 17t22 47q0 26 -15.5 36t-40.5 10q-13 0 -19 -1l-31 -5l-7 7l43 90q-23 0 -34.5 2.5t-37.5 14.5q-51 25 -77.5 86.5t-26.5 137.5q0 55 14 109q32 123 113 214q90 102 220 141
q51 16 93 16q53 0 108 -26z" />
    <glyph glyph-name="eacute" unicode="&#xe9;" horiz-adv-x="571" 
d="M658 606q0 -111 -86.5 -180.5t-221.5 -69.5q-23 0 -50 3t-54 8q-7 -25 -10 -48.5t-3 -54.5q0 -194 136 -194q28 0 38 3t39 18l126 68l22 -25l-179 -108q-37 -22 -71.5 -33.5t-67.5 -11.5q-76 0 -126 76q-46 70 -46 159q0 180 134.5 335.5t295.5 155.5q56 0 90 -26t34 -75
zM553 606q0 56 -53 56q-62 0 -138.5 -78.5t-103.5 -164.5l-7 -22l25 -3q26 -3 48 -3q109 0 171 63q58 59 58 152zM681 962q0 -10 -7 -14l-263 -161h-54l246 228q7 7 12 7q9 0 20 -9l31 -31l10 -10.5t5 -9.5z" />
    <glyph glyph-name="egrave" unicode="&#xe8;" horiz-adv-x="580" 
d="M658 606q0 -111 -86.5 -180.5t-221.5 -69.5q-23 0 -50 3t-54 8q-7 -25 -10 -48.5t-3 -54.5q0 -194 136 -194q28 0 38 3t39 18l126 68l22 -25l-179 -108q-37 -22 -71.5 -33.5t-67.5 -11.5q-76 0 -126 76q-46 70 -46 159q0 180 134.5 335.5t295.5 155.5q56 0 90 -26t34 -75
zM553 606q0 56 -53 56q-62 0 -138.5 -78.5t-103.5 -164.5l-7 -22l25 -3q26 -3 48 -3q109 0 171 63q58 59 58 152zM681 791h-54l-218 162q-5 3 -5 10q-1 5 3 10q3 4 10 9l44 36q12 10 19 10t12 -7z" />
    <glyph glyph-name="ecircumflex" unicode="&#xea;" horiz-adv-x="581" 
d="M658 606q0 -111 -86.5 -180.5t-221.5 -69.5q-23 0 -50 3t-54 8q-7 -25 -10 -48.5t-3 -54.5q0 -194 136 -194q28 0 38 3t39 18l126 68l22 -25l-179 -108q-37 -22 -71.5 -33.5t-67.5 -11.5q-76 0 -126 76q-46 70 -46 159q0 180 134.5 335.5t295.5 155.5q56 0 90 -26t34 -75
zM553 606q0 56 -53 56q-62 0 -138.5 -78.5t-103.5 -164.5l-7 -22l25 -3q26 -3 48 -3q109 0 171 63q58 59 58 152zM711 795h-45l-148 138l-185 -139h-47l198 225h87z" />
    <glyph glyph-name="edieresis" unicode="&#xeb;" horiz-adv-x="579" 
d="M658 606q0 -111 -86.5 -180.5t-221.5 -69.5q-23 0 -50 3t-54 8q-7 -25 -10 -48.5t-3 -54.5q0 -194 136 -194q28 0 38 3t39 18l126 68l22 -25l-179 -108q-37 -22 -71.5 -33.5t-67.5 -11.5q-76 0 -126 76q-46 70 -46 159q0 180 134.5 335.5t295.5 155.5q56 0 90 -26t34 -75
zM553 606q0 56 -53 56q-62 0 -138.5 -78.5t-103.5 -164.5l-7 -22l25 -3q26 -3 48 -3q109 0 171 63q58 59 58 152zM711 918q34 -13 34 -46q0 -29 -24.5 -54.5t-55.5 -25.5q-12 0 -26 6q-29 13 -29 45q0 29 22.5 54.5t53.5 25.5q12 0 25 -5zM447 918q16 -6 24 -18t8 -27
q0 -29 -23.5 -55t-54.5 -26q-12 0 -26 6q-29 13 -29 45q0 30 22 55t53 25q15 0 26 -5z" />
    <glyph glyph-name="iacute" unicode="&#xed;" horiz-adv-x="404" 
d="M421 100l-231 -119q-17 17 -20 21q-12 17 -12 37q0 22 4.5 44.5l7.5 38.5l100 444q4 18 -4 25.5t-20 7.5q-10 0 -25 -5l-65 -21l-9 29l250 97q6 -6 10.5 -12t4.5 -19q0 -10 -4 -29l-6 -29l-104 -464q-2 -8 -3.5 -16.5t-1.5 -13.5q0 -15 11 -22q5 -4 15 -4t18 4l73 33z
M545 966q0 -10 -7 -14l-263 -161h-54l246 228q7 7 12 7q9 0 20 -9l31 -31l10 -10.5t5 -9.5z" />
    <glyph glyph-name="igrave" unicode="&#xec;" horiz-adv-x="404" 
d="M421 100l-231 -119q-17 17 -20 21q-12 17 -12 37q0 22 4.5 44.5l7.5 38.5l100 444q4 18 -4 25.5t-20 7.5q-10 0 -25 -5l-65 -21l-9 29l250 97q6 -6 10.5 -12t4.5 -19q0 -10 -4 -29l-6 -29l-104 -464q-2 -8 -3.5 -16.5t-1.5 -13.5q0 -15 11 -22q5 -4 15 -4t18 4l73 33z
M486 789h-54l-218 162q-5 3 -5 10q-1 5 3 10q3 4 10 9l44 36q12 10 19 10t12 -7z" />
    <glyph glyph-name="icircumflex" unicode="&#xee;" horiz-adv-x="404" 
d="M421 100l-231 -119q-17 17 -20 21q-12 17 -12 37q0 22 4.5 44.5l7.5 38.5l100 444q4 18 -4 25.5t-20 7.5q-10 0 -25 -5l-65 -21l-9 29l250 97q6 -6 10.5 -12t4.5 -19q0 -10 -4 -29l-6 -29l-104 -464q-2 -8 -3.5 -16.5t-1.5 -13.5q0 -15 11 -22q5 -4 15 -4t18 4l73 33z
M503 792h-45l-148 138l-185 -139h-47l198 225h87z" />
    <glyph glyph-name="idieresis" unicode="&#xef;" horiz-adv-x="404" 
d="M421 100l-231 -119q-17 17 -20 21q-12 17 -12 37q0 22 4.5 44.5l7.5 38.5l100 444q4 18 -4 25.5t-20 7.5q-10 0 -25 -5l-65 -21l-9 29l250 97q6 -6 10.5 -12t4.5 -19q0 -10 -4 -29l-6 -29l-104 -464q-2 -8 -3.5 -16.5t-1.5 -13.5q0 -15 11 -22q5 -4 15 -4t18 4l73 33z
M479 919q34 -13 34 -46q0 -29 -24.5 -54.5t-55.5 -25.5q-12 0 -26 6q-29 13 -29 45q0 29 22.5 54.5t53.5 25.5q12 0 25 -5zM215 919q16 -6 24 -18t8 -27q0 -29 -23.5 -55t-54.5 -26q-12 0 -26 6q-29 13 -29 45q0 30 22 55t53 25q15 0 26 -5z" />
    <glyph glyph-name="ntilde" unicode="&#xf1;" horiz-adv-x="817" 
d="M831 104l-235 -121q-17 17 -20 21q-12 16 -12 37q0 23 5.5 46.5l9.5 39.5l98 392q7 30 7 52q0 28 -14 38q-9 6 -23 6q-71 0 -188 -143q-121 -147 -153 -280l-46 -192h-122l128 570q3 15 -5 24t-19 9q-7 0 -25 -6l-65 -21l-9 29l250 97q6 -6 10.5 -12t4.5 -19
q0 -12 -3 -26q-6 -21 -8 -32l-47 -219l58 80q72 99 162 163q94 67 171 67q19 0 38 -5t29 -23.5t10 -47.5q0 -16 -2.5 -32.5t-7.5 -38.5l-101 -406q-6 -20 -6 -32q0 -15 12 -22q8 -3 14 -3q7 0 16 3l76 35zM850 937l-7 -20q-21 -52 -49 -80q-32 -32 -82 -42q-17 -3 -21 -4
q-7 -1 -20 -1q-24 0 -54 12l-66 28q-37 16 -64 16q-11 0 -27.5 -4t-29 -11.5t-25.5 -24.5l-11 -15h-39l13 28q25 51 56 78q37 32 86 32q27 0 47 -4.5t48 -16.5l56 -25q27 -11 46 -11q10 0 24 3q25 6 40.5 15.5t28.5 30.5l10 16h40z" />
    <glyph glyph-name="oacute" unicode="&#xf3;" horiz-adv-x="662" 
d="M712 457q0 -173 -106 -318q-115 -158 -277 -158q-111 0 -168 83q-51 74 -51 194q0 165 110 301q115 142 269 142q223 0 223 -244zM589 514q0 144 -100 144q-122 0 -192 -152q-62 -134 -62 -317q0 -92 33 -128q28 -31 82 -31q84 0 143 94q48 77 75 203q21 100 21 187z
M685 968q0 -10 -7 -14l-263 -161h-54l246 228q7 7 12 7q9 0 20 -9l31 -31l10 -10.5t5 -9.5z" />
    <glyph glyph-name="ograve" unicode="&#xf2;" horiz-adv-x="666" 
d="M712 457q0 -173 -106 -318q-115 -158 -277 -158q-111 0 -168 83q-51 74 -51 194q0 165 110 301q115 142 269 142q223 0 223 -244zM589 514q0 144 -100 144q-122 0 -192 -152q-62 -134 -62 -317q0 -92 33 -128q28 -31 82 -31q84 0 143 94q48 77 75 203q21 100 21 187z
M662 793h-54l-218 162q-5 3 -5 10q-1 5 3 10q3 4 10 9l44 36q12 10 19 10t12 -7z" />
    <glyph glyph-name="ocircumflex" unicode="&#xf4;" horiz-adv-x="660" 
d="M712 457q0 -173 -106 -318q-115 -158 -277 -158q-111 0 -168 83q-51 74 -51 194q0 165 110 301q115 142 269 142q223 0 223 -244zM589 514q0 144 -100 144q-122 0 -192 -152q-62 -134 -62 -317q0 -92 33 -128q28 -31 82 -31q84 0 143 94q48 77 75 203q21 100 21 187z
M705 792h-45l-148 138l-185 -139h-47l198 225h87z" />
    <glyph glyph-name="odieresis" unicode="&#xf6;" horiz-adv-x="665" 
d="M712 457q0 -173 -106 -318q-115 -158 -277 -158q-111 0 -168 83q-51 74 -51 194q0 165 110 301q115 142 269 142q223 0 223 -244zM589 514q0 144 -100 144q-122 0 -192 -152q-62 -134 -62 -317q0 -92 33 -128q28 -31 82 -31q84 0 143 94q48 77 75 203q21 100 21 187z
M675 918q34 -13 34 -46q0 -29 -24.5 -54.5t-55.5 -25.5q-12 0 -26 6q-29 13 -29 45q0 29 22.5 54.5t53.5 25.5q12 0 25 -5zM411 918q16 -6 24 -18t8 -27q0 -29 -23.5 -55t-54.5 -26q-12 0 -26 6q-29 13 -29 45q0 30 22 55t53 25q15 0 26 -5z" />
    <glyph glyph-name="otilde" unicode="&#xf5;" horiz-adv-x="667" 
d="M727 457q0 -173 -106 -318q-115 -158 -277 -158q-111 0 -168 83q-51 74 -51 194q0 165 110 301q115 142 269 142q223 0 223 -244zM604 514q0 144 -100 144q-122 0 -192 -152q-62 -134 -62 -317q0 -92 33 -128q28 -31 82 -31q84 0 143 94q48 77 75 203q21 100 21 187z
M788 941l-7 -20q-21 -52 -49 -80q-32 -32 -82 -42q-17 -3 -21 -4q-7 -1 -20 -1q-24 0 -54 12l-66 28q-37 16 -64 16q-11 0 -27.5 -4t-29 -11.5t-25.5 -24.5l-11 -15h-39l13 28q25 51 56 78q37 32 86 32q27 0 47 -4.5t48 -16.5l56 -25q27 -11 46 -11q10 0 24 3
q25 6 40.5 15.5t28.5 30.5l10 16h40z" />
    <glyph glyph-name="uacute" unicode="&#xfa;" horiz-adv-x="828" 
d="M844 98l-230 -120q-11 6 -20 14q-14 14 -16 23.5t-2 17.5q0 7 2 21t4 22l41 185l-46 -59q-74 -93 -164 -156q-97 -68 -173 -68q-16 0 -35 4t-29 23.5t-10 50.5q0 16 2.5 33.5t7.5 40.5l94 413l6 33q0 15 -10 19t-15 4q-8 0 -17 -3l-78 -23l-9 30l256 98q10 -11 12 -20
q1 -3 1 -13q0 -12 -3 -26l-105 -460q-6 -23 -6 -48q0 -19 4.5 -33t15 -19t25.5 -5q76 0 178 120q108 126 143 273l52 215h120l-124 -557q-2 -14 -2 -21q0 -12 7 -16.5t17 -4.5q14 0 32 9l60 31zM812 964q0 -10 -7 -14l-263 -161h-54l246 228q7 7 12 7q9 0 20 -9l31 -31
l10 -10.5t5 -9.5z" />
    <glyph glyph-name="ugrave" unicode="&#xf9;" horiz-adv-x="823" 
d="M844 98l-230 -120q-11 6 -20 14q-14 14 -16 23.5t-2 17.5q0 7 2 21t4 22l41 185l-46 -59q-74 -93 -164 -156q-97 -68 -173 -68q-16 0 -35 4t-29 23.5t-10 50.5q0 16 2.5 33.5t7.5 40.5l94 413l6 33q0 15 -10 19t-15 4q-8 0 -17 -3l-78 -23l-9 30l256 98q10 -11 12 -20
q1 -3 1 -13q0 -12 -3 -26l-105 -460q-6 -23 -6 -48q0 -19 4.5 -33t15 -19t25.5 -5q76 0 178 120q108 126 143 273l52 215h120l-124 -557q-2 -14 -2 -21q0 -12 7 -16.5t17 -4.5q14 0 32 9l60 31zM792 785h-54l-218 162q-5 3 -5 10q-1 5 3 10q3 4 10 9l44 36q12 10 19 10
t12 -7z" />
    <glyph glyph-name="ucircumflex" unicode="&#xfb;" horiz-adv-x="819" 
d="M844 98l-230 -120q-11 6 -20 14q-14 14 -16 23.5t-2 17.5q0 7 2 21t4 22l41 185l-46 -59q-74 -93 -164 -156q-97 -68 -173 -68q-16 0 -35 4t-29 23.5t-10 50.5q0 16 2.5 33.5t7.5 40.5l94 413l6 33q0 15 -10 19t-15 4q-8 0 -17 -3l-78 -23l-9 30l256 98q10 -11 12 -20
q1 -3 1 -13q0 -12 -3 -26l-105 -460q-6 -23 -6 -48q0 -19 4.5 -33t15 -19t25.5 -5q76 0 178 120q108 126 143 273l52 215h120l-124 -557q-2 -14 -2 -21q0 -12 7 -16.5t17 -4.5q14 0 32 9l60 31zM832 795h-45l-148 138l-185 -139h-47l198 225h87z" />
    <glyph glyph-name="udieresis" unicode="&#xfc;" horiz-adv-x="827" 
d="M844 98l-230 -120q-11 6 -20 14q-14 14 -16 23.5t-2 17.5q0 7 2 21t4 22l41 185l-46 -59q-74 -93 -164 -156q-97 -68 -173 -68q-16 0 -35 4t-29 23.5t-10 50.5q0 16 2.5 33.5t7.5 40.5l94 413l6 33q0 15 -10 19t-15 4q-8 0 -17 -3l-78 -23l-9 30l256 98q10 -11 12 -20
q1 -3 1 -13q0 -12 -3 -26l-105 -460q-6 -23 -6 -48q0 -19 4.5 -33t15 -19t25.5 -5q76 0 178 120q108 126 143 273l52 215h120l-124 -557q-2 -14 -2 -21q0 -12 7 -16.5t17 -4.5q14 0 32 9l60 31zM835 920q34 -13 34 -46q0 -29 -24.5 -54.5t-55.5 -25.5q-12 0 -26 6
q-29 13 -29 45q0 29 22.5 54.5t53.5 25.5q12 0 25 -5zM571 920q16 -6 24 -18t8 -27q0 -29 -23.5 -55t-54.5 -26q-12 0 -26 6q-29 13 -29 45q0 30 22 55t53 25q15 0 26 -5z" />
    <glyph glyph-name="dagger" unicode="&#x2020;" horiz-adv-x="725" 
d="M824 623l-10 -42q-5 -22 -14 -34.5t-29 -18.5t-41 -6q-29 0 -111 39q-40 19 -70 19l-34 1l-12 -66q-4 -20 -6 -34t-2 -31v-24q3 -12 4 -17q5 -30 14 -53t26 -49q-28 -44 -42.5 -72t-33.5 -73q-23 -53 -36 -94.5t-25 -98.5l-68 -321h-65l66 318q8 37 10.5 69.5t2.5 75.5
v69q0 36 -3 62q-6 38 -9 61q23 21 39.5 42t34 49.5t26.5 56.5t18 71l13 57h-35q-39 0 -113.5 -31.5t-104.5 -31.5q-14 0 -26 3q-21 7 -21 38q0 14 3 26l11 52q4 15 13.5 25.5t21.5 15.5q22 8 41 8q32 0 96 -28t97 -28h29l8 77q0 7 0.5 15.5t0.5 11.5q0 29 -9 80t-9 73
q0 20 4 36.5t16 33.5q6 10 21.5 16t32.5 6l53 1q18 0 33 -7.5t15 -20.5q0 -53 -47 -132q-53 -89 -60 -131l-10 -59h29q39 0 110 31t103 31q21 0 42 -9q7 -4 10.5 -13t3.5 -24q0 -14 -2 -21z" />
    <glyph glyph-name="degree" unicode="&#xb0;" horiz-adv-x="374" 
d="M384 700q-70 0 -112 47q-38 43 -38 104q0 54 32 90q36 40 100 40q70 0 112 -47q38 -43 38 -104q0 -54 -32 -90q-36 -40 -100 -40zM381 757q38 0 58 22t20 55q0 36 -23 62q-26 29 -68 29q-38 0 -58 -22t-20 -55q0 -36 24.5 -63.5t66.5 -27.5z" />
    <glyph glyph-name="cent" unicode="&#xa2;" horiz-adv-x="560" 
d="M653 676l-19 -87l-39 -21l-23 30l-27 30l-248 -546q26 -7 30 -7q6 -1 18 -1q64 0 130 40l82 48l17 -30l-142 -88q-36 -21 -79.5 -38.5t-61.5 -17.5q-11 -2 -20.5 -2h-16.5l-45 -100h-57l54 115l-10 6q-48 26 -71 84t-23 133q0 66 17 132q32 120 129 219q105 106 232 130
q20 3 33 3h12l37 80h56l-37 -81l58 -23zM498 651q-12 5 -27 5q-19 0 -31 -3q-1 0 -20 -7q-65 -26 -123 -118.5t-73 -203.5q-2 -12 -3 -28.5t-1 -30.5q0 -47 9 -86.5t26 -62.5z" />
    <glyph glyph-name="sterling" unicode="&#xa3;" horiz-adv-x="801" 
d="M866 814l-66 -21l-39 75q-18 33 -36 47q-23 18 -54 18q-71 0 -132 -122q-46 -92 -84 -244l-7 -28h207l-17 -61h-209l-9 -30q-23 -83 -37 -122q-22 -59 -56 -114q-26 -42 -49 -66q-16 -17 -59 -53l45 8q56 9 109 9q20 0 34 -0.5t46 -3.5t119 -48q39 -20 60 -20
q15 0 26 6.5t22.5 25t18 46t6.5 62.5v67l74 30l23 -61q10 -24 10 -36q0 -46 -69 -105q-44 -37 -97 -66q-25 -14 -51.5 -20.5t-57.5 -6.5q-49 0 -118 17q-158 39 -193 39q-16 0 -24 -1q-49 -5 -73 -10q-3 -1 -89 -26l7 40l33 13q22 8 35.5 16t34.5 27q27 23 69 133
q31 81 71 210l13 42h-139l12 59h148l18 52q38 114 69 178q45 90 101 140q65 58 152 66q10 1 18.5 1.5t14.5 0.5q45 0 85.5 -10t73.5 -36z" />
    <glyph glyph-name="section" unicode="&#xa7;" horiz-adv-x="689" 
d="M733 846q-3 -6 -6 -9q-5 -3 -7 -4l-23 -13q-10 -6 -20 -3q-9 0 -13 7l-46 64q-20 27 -50 39t-63 12t-56 -10.5t-40 -38t-17 -55.5q0 -27 15 -53.5t41 -50.5l207 -196q38 -36 58 -74.5t20 -82.5q0 -30 -12 -62q-22 -56 -74.5 -88t-119.5 -32l-63 -4l42 -36
q44 -36 65 -74.5t21 -91.5q0 -83 -76 -138q-71 -51 -159 -51q-5 0 -18 -1t-20 -1q-51 0 -95 8.5t-76 25.5l-32 88l-3 14q3 9 14 14l25 15q10 7 22 7q7 0 15 -10l31 -45q51 -74 138 -74q58 0 97 29t39 77q0 31 -14.5 54t-42.5 50l-229 217q-70 65 -70 146q0 22 4 37l6 22
q22 70 111 98q60 19 150 19l16 -1l-55 48q-75 64 -75 151q0 19 5 46q16 73 93 113q66 34 149 34q38 0 86.5 -10t74.5 -24l29 -82q5 -11 1 -20zM630 293q13 20 13 45q0 27 -13.5 53t-37.5 47l-81 72q-26 23 -60.5 34t-72.5 11q-41 0 -77.5 -14.5t-53 -37.5t-16.5 -48
q0 -24 13.5 -48t35.5 -44l89 -81q60 -54 137 -54q38 0 70 15.5t54 49.5z" />
    <glyph glyph-name="bullet" unicode="&#x2022;" horiz-adv-x="556" 
d="M592 400q0 -98 -71.5 -167.5t-171.5 -69.5q-93 0 -159 67t-66 160q0 99 68.5 171.5t165.5 72.5t165.5 -68.5t68.5 -165.5z" />
    <glyph glyph-name="paragraph" unicode="&#xb6;" horiz-adv-x="815" 
d="M982 970l-8 -41h-15q-13 0 -41 -3.5t-44.5 -9t-29.5 -22t-21 -50.5l-186 -881q-2 -9 -3 -17t-1 -18q0 -24 13 -32t35 -11t35 -3h27l-8 -37h-23q-62 2 -137.5 3.5t-102.5 1.5q-73 0 -140 -1.5t-116 -3.5h-21l9 39l32 2q29 0 48 5t35 16q24 15 32 53l114 543l-15 1
q-36 0 -84.5 16.5t-85.5 41.5t-60.5 70.5t-23.5 96.5q0 30 7 57t25 57q42 71 122 103q67 27 159 27h20q62 -4 125.5 -6.5t106.5 -2.5q58 0 111 1.5t93 3.5zM554 919l-22 1q-43 0 -89 -29q-72 -45 -97 -138q-6 -24 -6 -47q0 -56 33.5 -96.5t91.5 -51.5l11 -3zM740 919l-85 -1
l-216 -1019h84z" />
    <glyph glyph-name="germandbls" unicode="&#xdf;" horiz-adv-x="796" 
d="M799 147q-22 -80 -105 -123q-70 -37 -160 -37q-53 0 -94 9t-78 27l34 149h32l-1 -42q0 -38 25.5 -63t66.5 -36q13 -4 32 -4q47 0 87.5 31t47.5 73q2 14 2 22q0 30 -11.5 61t-35.5 55l-109 110q-24 25 -35 53t-11 61v16q2 12 2 17q5 32 26 67q11 17 48 66l62 80
q16 20 25.5 49.5t9.5 58.5q0 62 -36 83.5t-70 21.5q-67 0 -119 -82q-43 -67 -62 -160l-27 -134q-25 -127 -50 -233.5t-58 -233.5q-36 -135 -63 -225t-69 -219l-63 -1l187 960h-74l15 34l75 29l13 41q35 119 116 190q85 74 202 74q67 0 120.5 -34.5t63.5 -96.5q2 -8 2 -15.5
v-14.5q0 -63 -49 -112l-76 -76q-22 -22 -29.5 -47.5t-7.5 -59.5q0 -24 21 -59t54 -70l44 -47q42 -44 62 -78q25 -43 25 -87q0 -15 -1 -23t-6 -25z" />
    <glyph glyph-name="registered" unicode="&#xae;" horiz-adv-x="1029" 
d="M717 956q190 0 292 -109q93 -99 93 -256q0 -218 -156 -391q-171 -190 -430 -190q-190 0 -292 109q-92 98 -92 256q0 217 156 390q172 191 429 191zM707 906q-230 0 -383 -170q-140 -155 -140 -349q0 -142 82 -229q91 -97 261 -97q230 0 383 170q140 155 140 349
q0 142 -82 229q-91 97 -261 97zM839 669q2 -14 2 -19q0 -40 -25.5 -75t-71.5 -62q-17 -10 -44 -18q-16 -5 -31 -9l-7 -2l121 -220q4 -3 5 -5q7 -7 10 -9l19 -6h5l-5 -21h-7l-42 3l-43 -3l-9 -1l-151 268l6 12l26 -1q54 0 103 31q54 34 60 83q2 14 2 21q0 31 -15.5 50.5
t-50.5 25.5q-18 2 -29 2q-25 0 -36 -1.5t-33 -5.5l-12 -4l-88 -416q-2 -10 -2 -14q0 -7 5 -14.5t20 -9.5t19 -2l17 -2l-4 -21h-12q-6 0 -42.5 2.5t-48.5 2.5q-26 0 -47 -1.5l-47 -3.5h-13l5 22l21 2q13 0 22 1.5t17 8.5q14 11 18 29l83 389q2 8 2 17q0 6 -4.5 14.5t-21.5 11
t-28 2.5h-8l4 22h14l92 -4l139 3l13 1q48 0 79 -14q42 -19 49 -60z" />
    <glyph glyph-name="copyright" unicode="&#xa9;" horiz-adv-x="1026" 
d="M717 956q190 0 292 -109q93 -99 93 -256q0 -218 -156 -391q-171 -190 -430 -190q-190 0 -292 109q-92 98 -92 256q0 217 156 390q172 191 429 191zM707 906q-230 0 -383 -170q-140 -155 -140 -349q0 -142 82 -229q91 -97 261 -97q230 0 383 170q140 155 140 349
q0 142 -82 229q-91 97 -261 97zM864 717l-40 -111h-22l10 46l1 7q3 16 -24 32.5t-55 22.5q-11 2 -27 4.5t-38 2.5h-19q-4 0 -20 -4q-99 -21 -156 -99q-50 -68 -59 -165q-1 -7 -1 -21q0 -79 48.5 -131.5t125.5 -52.5q54 0 92 9t72 26l20 10l4 -8l-21 -32l-19 -9
q-25 -11 -74 -23t-86 -12q-113 0 -178 55t-65 150v15q2 11 2 16q13 129 105 214q77 70 176 87q15 3 38.5 4t25.5 1q24 0 46.5 -2.5t39.5 -6t51 -12.5q6 -1 37 -10z" />
    <glyph glyph-name="trademark" unicode="&#x2122;" horiz-adv-x="1101" 
d="M637 983l-28 -111h-19l4 43q0 17 -3 23q-6 7 -16 7l-105 2l-80 -374q-2 -12 -2 -15q0 -4 4.5 -11.5t17.5 -9t17 -1.5l16 -1l-5 -19h-10q-1 0 -32 2t-49 2t-40 -1.5t-45 -2.5h-11l4 20l19 1q10 0 19.5 1.5t16.5 7.5q12 12 15 27l80 374l-105 -4q-12 -1 -15 -3
q-7 -7 -12 -19l-17 -49h-20l19 110l11 -1q20 0 91 -1t89 -1l179 2zM1266 981l-4 -21h-9q-12 0 -27 -1.5t-20 -7.5q-12 -11 -16 -29l-74 -349q-2 -8 -2 -11q0 -8 5.5 -16t16.5 -9t18 -1l16 -1l-4 -19h-11l-39 2.5t-43 1.5q-18 0 -39.5 -1.5t-44.5 -2.5h-12l5 20l19 1
q10 0 19.5 1.5t16.5 7.5q12 11 15 27l69 325l-266 -390h-13l-101 388l-69 -323q-1 -4 -1 -10q0 -9 5 -16.5t18 -9t17 -1.5l15 -1l-4 -19h-10q-1 0 -32 2t-50 2l-56 -4h-12l5 20l19 1q8 0 18 1.5t17 7.5q13 12 16 27l74 349q2 7 2 15q0 4 -3.5 11t-17 9.5t-28.5 2.5h-7l5 21
h11l44 -3q20 0 36 1t30 2h7l96 -372l99 142l64 91l54 79l29 48l7 12h9q1 0 22 -2t34 -2q11 0 25 1t29 3h8z" />
    <glyph glyph-name="acute" unicode="&#xb4;" horiz-adv-x="357" 
d="M523 946q0 -10 -7 -14l-263 -161h-54l246 228q7 7 12 7q9 0 20 -9l31 -31l10 -10.5t5 -9.5z" />
    <glyph glyph-name="dieresis" unicode="&#xa8;" horiz-adv-x="473" 
d="M594 968q34 -13 34 -46q0 -29 -24.5 -54.5t-55.5 -25.5q-12 0 -26 6q-29 13 -29 45q0 29 22.5 54.5t53.5 25.5q12 0 25 -5zM330 968q16 -6 24 -18t8 -27q0 -29 -23.5 -55t-54.5 -26q-12 0 -26 6q-29 13 -29 45q0 30 22 55t53 25q15 0 26 -5z" />
    <glyph glyph-name="notequal" unicode="&#x2260;" horiz-adv-x="777" 
d="M842 514l-15 -71h-258l-143 -189h360l-14 -71h-399l-166 -219l-57 36l139 183h-209l15 71h248l143 189h-351l15 71h389l170 225l58 -33l-145 -192h220z" />
    <glyph glyph-name="AE" unicode="&#xc6;" horiz-adv-x="1342" 
d="M1410 962l-46 -228h-35v59q0 35 -4.5 57.5t-18.5 40t-31.5 23t-42.5 5.5h-193l-84 -400h127h27q47 3 71 22q17 14 25 30t16 44l7 24h35l-62 -292h-32l-1 23q0 36 -3 55t-15 32.5t-31.5 15.5t-29.5 2h-145l-61 -288q-3 -15 -6 -34.5t-3 -29.5q0 -17 3.5 -30.5t14 -25
t32 -17.5t47.5 -6h120q34 0 58.5 5t53.5 20q36 19 71 66q20 26 38 60l29 53h34l-89 -248h-695l9 34l49 5q22 0 38 10q7 4 21 16q27 24 34 60l38 184h-341l-145 -167q-19 -21 -28.5 -42.5t-9.5 -36.5q0 -6 2 -12q7 -12 26 -15l13 -2l-16 -34h-262l15 34l16 2q16 2 38 11
t38 19q37 25 53.5 37.5t29.5 26.5l670 747q0 9 -5.5 17.5t-12.5 12.5t-18.5 7t-21.5 3l-33 3l6 42h616zM881 810l-387 -446h297z" />
    <glyph glyph-name="Oslash" unicode="&#xd8;" horiz-adv-x="988" 
d="M1086 953l-101 -112q73 -100 73 -263q0 -243 -146 -413q-156 -182 -406 -182q-67 0 -123 19.5t-102 58.5l-99 -109l-42 37l101 112q-96 115 -96 305q0 241 157 411q152 165 358 165q92 0 164 -24.5t123 -72.5l96 107zM871 800q-29 65 -80 99t-131 34q-149 0 -262 -163
t-113 -379q0 -117 35 -202zM906 587q0 84 -15 150l-544 -602q33 -51 83 -79t118 -28q163 0 265 176q93 161 93 383z" />
    <glyph glyph-name="infinity" unicode="&#x221e;" horiz-adv-x="1040" 
d="M1094 405q-17 -93 -93 -154q-71 -57 -151 -57q-53 0 -107 24t-94 71l-50 59l-76 -59q-58 -45 -123.5 -70t-117.5 -25q-67 0 -114 43t-47 115q0 14 3 31t4 22q19 82 89.5 138t154.5 56q50 0 96 -23.5t86 -67.5l63 -71l94 71q59 44 114.5 67.5t106.5 23.5q71 0 118 -45
t47 -114q0 -17 -3 -35zM1022 400q1 7 1 13v7q0 47 -30 76t-82 29q-41 0 -77 -16q-24 -10 -73 -43l-109 -70l70 -81q48 -55 132 -55q63 0 111.5 41t56.5 99zM566 396l-79 70q-36 32 -56 43q-29 16 -69 16q-57 0 -103 -35t-62 -90q-6 -20 -6 -38q0 -45 31.5 -73.5t84.5 -28.5
q45 0 79.5 12t74.5 43z" />
    <glyph glyph-name="plusminus" unicode="&#xb1;" horiz-adv-x="775" 
d="M849 537l-19 -89h-299l-65 -305h-88l64 302h-299l19 90h296l64 300h91l-63 -298h299zM758 94l-20 -94h-689l20 94h689z" />
    <glyph glyph-name="lessequal" unicode="&#x2264;" horiz-adv-x="821" 
d="M941 906l-23 -107l-629 -258l537 -278l-23 -99l-651 335l21 100zM792 100l-24 -100h-722l23 100h723z" />
    <glyph glyph-name="greaterequal" unicode="&#x2265;" horiz-adv-x="811" 
d="M890 599l-25 -100l-790 -335l24 111l636 282l-505 245l23 104zM790 100l-24 -100h-726l24 100h726z" />
    <glyph glyph-name="yen" unicode="&#xa5;" horiz-adv-x="850" 
d="M1019 962l-9 -32q-24 -2 -49 -14q-15 -7 -36 -29.5t-39 -48.5l-178 -259h156l-11 -54h-185l-66 -106h231l-15 -54h-227l-51 -250q-2 -14 -3.5 -22.5t-1.5 -9.5q0 -12 7.5 -23t18 -14t34.5 -5l47 -4l-10 -37h-366l10 36l28 3q45 4 55.5 7t22.5 14t17.5 26t9.5 37l51 242
h-222l10 54h208l-33 106h-156l14 54h129l-80 257q-7 21 -13 36t-18 30q-7 9 -21 16.5t-30 7.5h-14l7 36h325l-5 -35h-34q-34 0 -50 -20.5t-16 -49.5q0 -13 5 -31l106 -348l231 336q23 33 23 64q0 13 -5 24.5t-18.5 17t-31.5 5.5h-23l10 37h261z" />
    <glyph glyph-name="mu" unicode="&#xb5;" horiz-adv-x="769" 
d="M787 138l-17 -43q-21 -50 -82 -88q-55 -34 -100 -34q-7 1 -10 1q-39 5 -66.5 37.5t-27.5 77.5q0 8 2 22l-43 -35q-51 -42 -105.5 -69.5t-90.5 -27.5q-35 0 -74 19q-47 23 -67 61l-10 -48q-3 -13 -4 -24.5t-1 -25.5q0 -21 6 -58t6 -60q0 -24 -6.5 -58.5t-31.5 -62
t-56 -27.5q-25 0 -38 18t-13 45q0 7 2 19q9 49 37 97q34 57 43 87l11 38l146 690h117l-101 -475q-4 -16 -4 -36q0 -47 26 -79t72 -32q56 0 121 43q71 47 83 103l101 476h114l-114 -537q-3 -15 -3 -17q-1 -7 -1 -18q0 -32 13.5 -55t39.5 -23q7 0 11 1q47 9 73 60l18 38h24z
" />
    <glyph glyph-name="partialdiff" unicode="&#x2202;" horiz-adv-x="668" 
d="M741 512q-26 -189 -152 -357q-135 -180 -280 -180q-14 0 -21 1q-98 9 -147 63.5t-49 141.5v21.5t4 32.5q19 115 115 202t209 87q47 0 84 -16q31 -13 70 -45l34 -29l24 67q17 48 26 95t9 94q0 98 -39 157q-44 66 -129 66q-33 0 -67.5 -10.5l-68.5 -21.5l-25 -7l-36 61
l58 16q36 10 65.5 15t62.5 5q132 0 200 -107q60 -94 60 -248q0 -55 -7 -104zM587 385l-28 34q-18 21 -34 31.5t-37.5 15t-36.5 4.5q-64 0 -127 -56q-58 -51 -94 -126t-36 -144q0 -49 19.5 -82.5t61.5 -46.5q18 -6 35 -6q70 0 140 93q53 71 96 182z" />
    <glyph glyph-name="summation" unicode="&#x3a3;" horiz-adv-x="958" 
d="M1037 964l-43 -211h-28q6 23 6 41q0 41 -30 74q-21 23 -47.5 29.5t-74.5 6.5h-386l277 -448l-493 -447h530q25 0 47 7.5t48 24.5q65 43 88 115h28q-21 -38 -38.5 -75.5t-32 -75t-25.5 -73.5t-19 -68l-91 18h-755l578 515l-338 574l84 -7h715z" />
    <glyph glyph-name="product" unicode="&#x220f;" horiz-adv-x="1115" 
d="M1277 965l-6 -30l-30 -1q-30 0 -67 -26q-29 -20 -43.5 -47t-23.5 -68l-164 -775q-3 -14 -5 -25.5t-2 -21.5q0 -24 14 -40.5t30 -21.5t41 -5l30 -1l-4 -21h-412l5 24l34 1q29 0 45 3.5t35 19.5t27 40q3 10 11 50l186 869h-482l-184 -862q-3 -14 -5 -26.5t-2 -23.5
q0 -31 20 -50q16 -14 33 -16t40 -2h26l-6 -27h-412l6 29h33q28 0 43 2.5t33 15.5q25 16 36 43q6 14 14 57l167 784q4 16 4 32q0 36 -26 62q-13 13 -26 20.5t-31 7.5l-22 3l6 27h1034z" />
    <glyph glyph-name="pi" unicode="&#x3c0;" horiz-adv-x="792" 
d="M898 681l-24 -116h-185l-90 -337q-5 -20 -5 -36q0 -35 19 -59t52 -24t61 22.5t44 57.5l11 24h27l-10 -31q-27 -80 -86 -134q-64 -58 -136 -58q-47 0 -67.5 32.5t-20.5 89.5q0 36 7 73.5t19 77.5l97 302h-165l-152 -447q-17 -51 -48 -90q-37 -46 -74 -46q-9 0 -18 3
q-23 6 -35.5 17t-12.5 32q0 43 43 80q62 54 73 71l22.5 34t16.5 36l98 305h-46h-17q-24 0 -30 -1q-7 -1 -20 -6q-28 -10 -57 -38q-23 -22 -31 -38l-22 10l13 19q52 78 61 90q34 42 83 63.5t96 21.5h509z" />
    <glyph glyph-name="integral" unicode="&#x222b;" horiz-adv-x="379" 
d="M554 1017q-8 -21 -27.5 -34.5t-40.5 -13.5q-13 0 -24 10q-16 15 -20 17q-5 3 -9 3q-27 0 -43 -111.5l-30 -215.5l-86 -408q-21 -99 -40 -159q-33 -106 -73 -168q-51 -79 -109 -79h-16q-8 3 -11 4q-16 5 -26 17q-13 15 -13 32q0 4 2 12q7 21 23.5 34.5t37.5 13.5
q16 0 26 -16.5t19 -19.5q37 -12 66 133l26 136l120 567q35 166 88 243q44 64 98 64q26 0 45 -13t19 -34q0 -9 -2 -14z" />
    <glyph glyph-name="ordfeminine" unicode="&#xaa;" horiz-adv-x="474" 
d="M455 561l-12 -57h-262l13 57h261zM516 737l-109 -57q-8 -4 -14 5.5t-4 22.5l5 27l21 104l-42 -59q-29 -40 -66 -69.5t-62 -29.5q-7 0 -13 3q-14 9 -22 30.5t-8 50.5q0 91 56 167q68 92 176 92h80l-54 -248q-2 -13 -3.5 -21.5t-1.5 -9.5q0 -14 10 -14q7 1 9 2l36 18z
M449 999q-7 1 -12 1q-33 0 -75.5 -9t-73.5 -76q-27 -58 -27 -121q0 -56 24 -61q26 -5 76.5 60.5t68.5 132.5z" />
    <glyph glyph-name="ordmasculine" unicode="&#xba;" horiz-adv-x="486" 
d="M451 561l-12 -57h-232l12 57h232zM521 903q0 -86 -53 -159q-57 -78 -137 -78q-55 0 -84 41q-25 36 -25 96q0 84 55 152.5t133 68.5q111 0 111 -121zM460 931q0 72 -50 72q-60 0 -95 -76q-31 -67 -31 -158q0 -46 15 -62.5t42 -16.5q60 0 93 94q26 73 26 147z" />
    <glyph glyph-name="Omega" unicode="&#x3a9;" horiz-adv-x="1018" 
d="M1053 502q-33 -132 -129 -226t-228 -116l-8 -40h212q24 0 42 7.5t35 25.5q9 12 14.5 23t7.5 24h25l-43 -202h-388l60 191q102 43 164.5 122.5t84.5 187.5q13 60 13 105q0 87 -47 131q-55 52 -179 52q-148 0 -237 -85q-77 -73 -106 -203q-11 -50 -11 -92q0 -75 31.5 -130
t97.5 -88l-22 -191h-388l43 202h25q-3 -12 -3 -21q0 -12 6 -26q14 -33 62 -33h211l9 40q-103 18 -159.5 91t-56.5 180q0 35 6 71q26 151 170 240q137 85 328 85q171 0 269.5 -64.5t98.5 -182.5q0 -38 -10 -78z" />
    <glyph glyph-name="ae" unicode="&#xe6;" horiz-adv-x="978" 
d="M1058 606q0 -110 -87 -180t-221 -70q-23 0 -50 3t-54 8q-3 -8 -5.5 -19.5t-5 -34.5t-2.5 -53q0 -76 22 -122q27 -57 86 -66q8 -1 15 -2h14q38 0 76 21l126 68l22 -25l-179 -108q-72 -43 -141 -43q-25 0 -42 7q-77 34 -107 117q-19 52 -19 126v30l-72 -96
q-53 -70 -127 -125q-79 -59 -128 -59q-6 0 -13 2t-14 5q-31 18 -47 61t-16 103q0 114 52 230q59 131 160 209q120 92 275 92h167l-11 -49q32 28 91 48.5t113 20.5q55 0 88.5 -23.5t33.5 -75.5zM943 645q-18 17 -45 17q-61 0 -136.5 -78.5t-103.5 -164.5l-7 -22l25 -3
q23 -3 48 -3q66 0 117 23q61 27 88 83q12 23 18 52t6 55q0 31 -10 41zM608 633q-14 2 -30 2q-29 0 -68 -4t-74 -11q-101 -19 -167 -158q-57 -120 -57 -248q0 -55 12.5 -87.5t38.5 -37.5q54 -9 159 123q110 138 146 273z" />
    <glyph glyph-name="oslash" unicode="&#xf8;" horiz-adv-x="669" 
d="M786 694l-98 -103q24 -54 24 -134q0 -173 -106 -318q-115 -158 -277 -158q-51 0 -89.5 17.5t-66.5 50.5l-97 -101l-35 36l103 109q-34 69 -34 165q0 165 110 301q115 142 269 142q114 0 169 -62l88 93zM586 562q-14 96 -97 96q-121 0 -192 -152q-62 -133 -62 -316z
M588 486l-347 -365q8 -42 31 -64q28 -27 78 -27q115 0 183 171q55 138 55 285z" />
    <glyph glyph-name="questiondown" unicode="&#xbf;" horiz-adv-x="587" 
d="M505 685q33 -4 50.5 -25t17.5 -50q0 -39 -28.5 -70.5t-75.5 -31.5q-9 0 -26 2t-32.5 23.5t-15.5 52.5q0 39 25.5 69.5t71.5 30.5q9 -1 13 -1zM517 -204l-75 -102l-58 -18q-57 -18 -114 -18q-105 0 -171 56q-72 61 -72 168q0 63 36 114q30 42 92 88l118 86q23 18 37 31
t31 35q27 34 44 80q13 36 20 80h58q-4 -47 -18.5 -92t-44.5 -95q-20 -32 -61 -75q-28 -29 -42 -46l-69 -83q-26 -31 -40.5 -76.5t-14.5 -93.5q0 -58 22.5 -95.5t67.5 -37.5q37 0 71 21q22 14 62 51l65 58z" />
    <glyph glyph-name="exclamdown" unicode="&#xa1;" horiz-adv-x="259" 
d="M332 542q-13 -16 -36 -27.5t-46 -11.5t-40 11.5t-26.5 31t-9.5 39.5q0 34 19 60q14 19 35.5 28.5t46.5 9.5q32 0 51 -16q13 -11 18.5 -26t5.5 -35t-5 -36.5t-13 -27.5zM237 396l-88 -707q-3 -24 -24.5 -34.5t-53.5 -10.5q-37 0 -50 3q-27 6 -22 25l199 724h39z" />
    <glyph glyph-name="logicalnot" unicode="&#xac;" horiz-adv-x="1029" 
d="M1085 403l-86 -403h-77l70 331h-870l22 72h941z" />
    <glyph glyph-name="radical" unicode="&#x221a;" horiz-adv-x="695" 
d="M874 1057l-420 -1119l-173 590l-126 -58l-9 40l191 83l140 -472l356 941z" />
    <glyph glyph-name="florin" unicode="&#x192;" horiz-adv-x="556" 
d="M738 1027l-13 -91l-28 -21l-16 31q-14 29 -27 42q-16 17 -38 19q-39 5 -73 -54q-29 -50 -43 -125l-28 -149h149l-11 -62h-148l-29 -157q-47 -266 -49 -275q-30 -141 -76 -231q-55 -109 -150 -181q-21 -16 -38 -21.5t-42 -5.5q-16 0 -23 8l-65 66l32 59l76 -34
q10 -5 20 -9.5t20 -4.5q9 0 18 6q33 24 51 88q7 25 22 115l94 577h-100l10 60h100l18 62q42 152 105 229q69 84 167 84q18 0 34 -3t37 -9z" />
    <glyph glyph-name="approxequal" unicode="&#x2248;" horiz-adv-x="846" 
d="M923 552l-35 -32q-47 -44 -93 -64.5t-102 -20.5q-35 0 -69.5 11.5l-67.5 23.5l-111 32l-47 14t-43 7q-13 0 -30 -3q-36 -7 -61.5 -20.5t-55.5 -39.5l-29 -26l-53 40l24 21q46 40 89 60.5t97 29.5q24 3 44 3q32 0 66 -9q11 -3 42 -13l97 -31l58.5 -19.5t61.5 -9.5
q75 0 138 55l31 27zM875 324l-35 -33q-47 -43 -93.5 -63.5t-102.5 -20.5q-37 0 -70.5 11t-66.5 23l-110 33l-46 13q-25 7 -44 7q-13 0 -30 -3q-61 -12 -117 -60l-30 -25l-53 39l24 22q47 40 88 60t98 29q23 4 45 4q27 0 53 -6q8 -2 54 -16l98 -32q28 -10 57 -18.5t63 -8.5
q76 0 137 53l32 27z" />
    <glyph glyph-name="Delta" unicode="&#x2206;" horiz-adv-x="939" 
d="M911 0h-860l664 965zM754 63l-141 673l-460 -673h601z" />
    <glyph glyph-name="guillemotleft" unicode="&#xab;" horiz-adv-x="593" 
d="M689 637q5 -4 1.5 -11.5t-10.5 -15.5l-189 -215l100 -222q4 -14 -5 -21q-10 -6 -18 2l-205 241l303 237q14 11 23 5zM456 637q5 -4 1 -12.5t-9 -14.5l-192 -215l101 -222q4 -14 -5 -21q-9 -6 -19 2l-205 241l306 237q14 12 22 5z" />
    <glyph glyph-name="guillemotright" unicode="&#xbb;" horiz-adv-x="591" 
d="M639 396l-309 -241q-11 -10 -19 -2q-7 7 4 20l195 223l-101 215q-3 12 -3 14q0 7 6 12q6 4 12 2q4 -1 9 -6zM404 396l-309 -241q-10 -8 -18 -2q-8 8 4 20l194 223l-98 215q-3 6 -3 14q0 7 6 12q11 7 20 -4z" />
    <glyph glyph-name="ellipsis" unicode="&#x2026;" horiz-adv-x="927" 
d="M517 163q29 -3 44.5 -24.5t15.5 -52.5q0 -39 -24 -67q-28 -32 -74 -32q-9 1 -13 1q-33 3 -50.5 23.5t-17.5 50.5q0 39 28.5 70.5t76.5 31.5q9 0 14 -1zM187 162q29 -3 44.5 -24.5t15.5 -52.5q0 -39 -25.5 -69.5t-71.5 -30.5q-9 1 -13 1q-33 4 -50.5 25t-17.5 50
q0 39 28.5 70.5t75.5 31.5q9 0 14 -1zM846 160q29 -3 44.5 -24.5t15.5 -52.5q0 -39 -25.5 -69.5t-71.5 -30.5q-9 1 -13 1q-33 4 -50.5 25t-17.5 50q0 39 28.5 70.5t75.5 31.5q9 0 14 -1z" />
    <glyph glyph-name="nonbreakingspace" unicode="&#xa0;" horiz-adv-x="564" 
 />
    <glyph glyph-name="Agrave" unicode="&#xc0;" horiz-adv-x="977" 
d="M944 34l-10 -34h-312l9 34l18 1q31 0 53 32q13 18 13 43q0 10 -1 16l-17 183h-344l-93 -167q-11 -18 -15 -32.5t-4 -27.5q0 -21 11 -32q8 -7 17 -9.5t19 -3.5l17 -3l-9 -34h-263l9 34l27 4q20 0 50 20q34 23 62 72l477 832h80l110 -851q2 -17 16 -36q9 -12 22 -23
q23 -18 50 -18h8zM690 364l-48 468l-258 -468h306zM848 1022h-54l-218 162q-5 3 -5 10q-1 5 3 10q3 4 10 9l44 36q12 10 19 10t12 -7z" />
    <glyph glyph-name="Atilde" unicode="&#xc3;" horiz-adv-x="951" 
d="M914 34l-10 -34h-312l9 34l18 1q31 0 53 32q13 18 13 43q0 10 -1 16l-17 183h-344l-93 -167q-11 -18 -15 -32.5t-4 -27.5q0 -21 11 -32q8 -7 17 -9.5t19 -3.5l17 -3l-9 -34h-263l9 34l27 4q20 0 50 20q34 23 62 72l477 832h80l110 -851q2 -17 16 -36q9 -12 22 -23
q23 -18 50 -18h8zM660 364l-48 468l-258 -468h306zM930 1177l-7 -20q-21 -52 -49 -80q-32 -32 -82 -42q-17 -3 -21 -4q-7 -1 -20 -1q-24 0 -54 12l-66 28q-37 16 -64 16q-11 0 -27.5 -4t-29 -11.5t-25.5 -24.5l-11 -15h-39l13 28q25 51 56 78q37 32 86 32q27 0 47 -4.5
t48 -16.5l56 -25q27 -11 46 -11q10 0 24 3q25 6 40.5 15.5t28.5 30.5l10 16h40z" />
    <glyph glyph-name="Otilde" unicode="&#xd5;" 
d="M1066 578q0 -243 -146 -413q-156 -182 -406 -182q-165 0 -263 116t-98 307q0 241 157 411q152 165 358 165q193 0 295.5 -105.5t102.5 -298.5zM914 587q0 166 -54 251q-61 95 -192 95q-149 0 -262 -163t-113 -379q0 -158 61 -254q69 -109 202 -109q163 0 265 176
q93 161 93 383zM957 1177l-7 -20q-21 -52 -49 -80q-32 -32 -82 -42q-17 -3 -21 -4q-7 -1 -20 -1q-24 0 -54 12l-66 28q-37 16 -64 16q-11 0 -27.5 -4t-29 -11.5t-25.5 -24.5l-11 -15h-39l13 28q25 51 56 78q37 32 86 32q27 0 47 -4.5t48 -16.5l56 -25q27 -11 46 -11
q10 0 24 3q25 6 40.5 15.5t28.5 30.5l10 16h40z" />
    <glyph glyph-name="OE" unicode="&#x152;" horiz-adv-x="1300" 
d="M1374 962l-46 -228h-35v59q0 31 -5.5 56t-18.5 42t-31 22.5t-43 5.5h-192l-84 -400h128h26q47 3 71 22q18 14 26 29.5t15 44.5l7 24h36l-63 -292h-32l-1 23q0 36 -3 55t-15 32.5t-31.5 15.5t-29.5 2h-144l-62 -288q-3 -12 -6 -31t-3 -36q0 -36 14.5 -52t38.5 -20t44 -4
h120q34 0 58.5 5t53.5 20q36 19 71 66q20 26 38 60l29 53h34l-88 -248h-618l-40 -10q-38 -7 -88 -7q-165 0 -262.5 110t-97.5 302q0 229 144 403q152 184 371 184q79 0 146 -20h568zM851 838q-34 47 -70 68q-48 28 -121 28q-155 0 -268 -176q-106 -165 -106 -363
q0 -160 64 -259q71 -110 200 -110q45 0 74 9.5t69 30.5z" />
    <glyph glyph-name="oe" unicode="&#x153;" horiz-adv-x="1031" 
d="M1118 600q0 -109 -85.5 -176.5t-218.5 -67.5q-57 0 -108 11q-7 -25 -10 -48.5t-3 -54.5q0 -194 136 -194q28 0 38 3t39 18l126 68l22 -25l-179 -108q-37 -22 -71.5 -33.5t-67.5 -11.5q-51 0 -91.5 36.5t-61.5 93.5q-51 -61 -115.5 -95.5t-138.5 -34.5q-111 0 -168 83
q-51 74 -51 194q0 165 110 301q115 142 269 142q173 0 212 -146q61 69 137 107.5t156 38.5q56 0 90 -26t34 -75zM1013 600q0 56 -53 56q-63 0 -139 -75.5t-103 -161.5l-7 -22l25 -3q27 -3 51 -3q108 0 167 58.5t59 150.5zM589 514q0 144 -100 144q-122 0 -192 -152
q-62 -134 -62 -317q0 -92 33 -128q28 -31 82 -31q84 0 143 94q48 77 75 203q21 100 21 187z" />
    <glyph glyph-name="endash" unicode="&#x2013;" horiz-adv-x="549" 
d="M612 440l-24 -89l-477 -1l24 90h477z" />
    <glyph glyph-name="emdash" unicode="&#x2014;" horiz-adv-x="1011" 
d="M1077 440l-24 -89l-942 -1l24 90h942z" />
    <glyph glyph-name="quotedblleft" unicode="&#x201c;" horiz-adv-x="527" 
d="M687 970l-51 -57q-27 -30 -49 -76q-17 -36 -26 -70q-4 -20 -5 -51.5t-4.5 -47.5t-20.5 -29l-55 -39q-13 -9 -15 -10q-9 -4 -17 -2q-14 5 -19 20l-12 34q-3 7 -4 17.5t-1 11.5q0 12 3.5 25t8 23t13.5 21l217 273zM457 967l-51 -58q-29 -32 -49 -72.5t-25 -67t-6 -58
t-5 -46t-21 -26.5l-57 -42q-8 -6 -15.5 -9.5t-15.5 -1.5q-14 5 -18 19l-12 33q-5 14 -5 32q0 9 2 24t6 22.5t15 22.5l219 271z" />
    <glyph glyph-name="quotedblright" unicode="&#x201d;" horiz-adv-x="536" 
d="M681 902q-4 -23 -21 -44l-218 -271l-38 43l51 58q28 31 47 71q15 31 28 75q5 16 5 48.5t4.5 48t21.5 27.5l57 42q16 13 29 10q13 -1 20 -18l12 -33q5 -14 5 -32q0 -13 -3 -25zM451 902q-3 -11 -8.5 -22t-14.5 -23l-217 -273l-38 43l51 57q27 30 47 72q15 32 28 74
q6 19 6 51.5t4.5 48.5t20.5 28l55 39q17 12 30 12q14 -1 21 -20l12 -34q3 -7 4 -19t1 -13q0 -11 -2 -21z" />
    <glyph glyph-name="quoteleft" unicode="&#x2018;" horiz-adv-x="309" 
d="M468 967l-51 -58q-28 -31 -47 -71q-15 -31 -28 -75q-5 -16 -5.5 -49t-3 -43.5t-8 -18t-13.5 -13.5l-57 -42l-14.5 -10t-14.5 -4q-15 3 -20 22l-13 33q-5 14 -5 32q0 13 4 28.5t6 19.5q3 8 14 21l219 271z" />
    <glyph glyph-name="quoteright" unicode="&#x2019;" horiz-adv-x="296" 
d="M448 901q-4 -15 -8.5 -24t-13.5 -21l-217 -273l-37 43l51 57q22 26 41 61q25 48 34 85q3 15 4 47.5t5 50t21 30.5l55 40l13 8t18 5q5 -1 9 -4q6 -6 11 -18l12 -34q5 -13 5 -28q0 -14 -3 -25z" />
    <glyph glyph-name="divide" unicode="&#xf7;" horiz-adv-x="778" 
d="M546 710q31 0 46.5 -16.5t15.5 -42.5q0 -36 -27.5 -66.5t-70.5 -30.5q-31 0 -46.5 16.5t-15.5 42.5q0 36 27.5 66.5t70.5 30.5zM831 443l-20 -93h-690l20 93h690zM444 238q31 0 46.5 -16.5t15.5 -42.5q0 -35 -27.5 -65.5t-69.5 -30.5q-31 0 -46.5 16.5t-15.5 42.5
q0 35 27.5 65.5t69.5 30.5z" />
    <glyph glyph-name="lozenge" unicode="&#x25ca;" horiz-adv-x="649" 
d="M723 475l-347 -477h-81l-147 484l348 461h81zM649 475l-128 398l-297 -394l126 -421z" />
    <glyph glyph-name="ydieresis" unicode="&#xff;" horiz-adv-x="713" 
d="M801 583q-2 -14 -24 -48q-7 -11 -44 -63l-445 -607q-25 -36 -37 -57q-15 -27 -29 -62q-4 -10 -12 -46t-14.5 -43.5t-21.5 -7.5h-31q-15 0 -22 7q-9 6 -9 18v45l1 16q2 10 9.5 19l12.5 15l197 229l-45 538q-3 33 -21.5 51t-43.5 18q-5 0 -19 -2l-38 -8l-13 29l218 80
l10 -8q8 -9 9.5 -27.5t2.5 -29.5l43 -498l198 275q16 23 28 44q17 31 25 60q3 10 4 23t1 30q0 12 -0.5 23t-0.5 20l-5 68l70 23l37 -90q4 -10 6.5 -18t2.5 -16zM735 919q34 -13 34 -46q0 -29 -24.5 -54.5t-55.5 -25.5q-12 0 -26 6q-29 13 -29 45q0 29 22.5 54.5t53.5 25.5
q12 0 25 -5zM471 919q16 -6 24 -18t8 -27q0 -29 -23.5 -55t-54.5 -26q-12 0 -26 6q-29 13 -29 45q0 30 22 55t53 25q15 0 26 -5z" />
    <glyph glyph-name="Ydieresis" unicode="&#x178;" horiz-adv-x="1000" 
d="M1081 962l-10 -42l-14 -2q-15 -1 -23.5 -5t-26.5 -14.5t-32 -23t-30 -34.5l-310 -409q-17 -23 -28 -48q-4 -10 -7.5 -21.5t-7.5 -29.5l-49 -225q-3 -12 -3 -23q0 -18 11 -28q8 -7 24 -11t34 -6l39 -6l-10 -34h-367l5 34l51 7q22 3 35 6.5t27 15.5q9 7 13.5 18.5t7.5 26.5
l60 274l-138 462q-5 18 -14 30q-4 5 -14.5 16.5t-26 19.5t-31.5 8l-17 2l5 42h338l-10 -42l-15 -1q-22 0 -38 -5.5t-27 -18.5q-17 -18 -17 -47q0 -12 3 -23l113 -376l266 361q12 16 18.5 30t6.5 29q0 10 -5 22t-20 19.5t-36 7.5l-21 2l7 42h284zM870 1154q34 -13 34 -46
q0 -29 -24.5 -54.5t-55.5 -25.5q-12 0 -26 6q-29 13 -29 45q0 29 22.5 54.5t53.5 25.5q12 0 25 -5zM606 1154q16 -6 24 -18t8 -27q0 -29 -23.5 -55t-54.5 -26q-12 0 -26 6q-29 13 -29 45q0 30 22 55t53 25q15 0 26 -5z" />
    <glyph glyph-name="periodcentered" unicode="&#xb7;" horiz-adv-x="256" 
d="M259 545q29 -3 44.5 -24.5t15.5 -52.5q0 -39 -25.5 -69.5t-71.5 -30.5q-9 1 -13 1q-33 4 -50.5 25t-17.5 50q0 39 28.5 70.5t75.5 31.5q9 0 14 -1z" />
    <glyph glyph-name="periodcentered" unicode="&#x2219;" horiz-adv-x="256" 
d="M259 545q29 -3 44.5 -24.5t15.5 -52.5q0 -39 -25.5 -69.5t-71.5 -30.5q-9 1 -13 1q-33 4 -50.5 25t-17.5 50q0 39 28.5 70.5t75.5 31.5q9 0 14 -1z" />
    <glyph glyph-name="quotesinglbase" unicode="&#x201a;" horiz-adv-x="296" 
d="M288 85q-4 -15 -8.5 -24t-13.5 -21l-217 -273l-37 43l51 57q22 26 41 61q25 48 34 85q3 15 4 47.5t5 50t21 30.5l55 40l13 8t18 5q5 -1 9 -4q6 -6 11 -18l12 -34q5 -13 5 -28q0 -14 -3 -25z" />
    <glyph glyph-name="quotedblbase" unicode="&#x201e;" horiz-adv-x="536" 
d="M545 86q-4 -23 -21 -44l-218 -271l-38 43l51 58q28 31 47 71q15 31 28 75q5 16 5 48.5t4.5 48t21.5 27.5l57 42q16 13 29 10q13 -1 20 -18l12 -33q5 -14 5 -32q0 -13 -3 -25zM315 86q-3 -11 -8.5 -22t-14.5 -23l-217 -273l-38 43l51 57q27 30 47 72q15 32 28 74
q6 19 6 51.5t4.5 48.5t20.5 28l55 39q17 12 30 12q14 -1 21 -20l12 -34q3 -7 4 -19t1 -13q0 -11 -2 -21z" />
    <glyph glyph-name="Acircumflex" unicode="&#xc2;" horiz-adv-x="963" 
d="M944 34l-10 -34h-312l9 34l18 1q31 0 53 32q13 18 13 43q0 10 -1 16l-17 183h-344l-93 -167q-11 -18 -15 -32.5t-4 -27.5q0 -21 11 -32q8 -7 17 -9.5t19 -3.5l17 -3l-9 -34h-263l9 34l27 4q20 0 50 20q34 23 62 72l477 832h80l110 -851q2 -17 16 -36q9 -12 22 -23
q23 -18 50 -18h8zM690 364l-48 468l-258 -468h306zM909 1034h-45l-148 138l-185 -139h-47l198 225h87z" />
    <glyph glyph-name="Ecircumflex" unicode="&#xca;" horiz-adv-x="804" 
d="M854 962l-46 -228h-35v59q0 31 -5.5 56t-18.5 42t-31 22.5t-43 5.5h-192l-84 -400h128h26q47 3 71 22q18 14 26 29.5t15 44.5l7 24h36l-63 -292h-32l-1 23q0 36 -3 55t-15 32.5t-31.5 15.5t-29.5 2h-144l-62 -288q-3 -12 -6 -31t-3 -36q0 -36 14.5 -52t38.5 -20t44 -4
h120q34 0 58.5 5t53.5 20q36 19 71 66q20 26 38 60l29 53h34l-88 -248h-696l9 34l40 6q24 3 42 9t28 15q25 21 33 61l146 726q4 18 4 26q0 12 -6 23.5t-26.5 15.5t-41.5 4h-32l7 42h616zM801 1034h-45l-148 138l-185 -139h-47l198 225h87z" />
    <glyph glyph-name="Aacute" unicode="&#xc1;" horiz-adv-x="975" 
d="M944 34l-10 -34h-312l9 34l18 1q31 0 53 32q13 18 13 43q0 10 -1 16l-17 183h-344l-93 -167q-11 -18 -15 -32.5t-4 -27.5q0 -21 11 -32q8 -7 17 -9.5t19 -3.5l17 -3l-9 -34h-263l9 34l27 4q20 0 50 20q34 23 62 72l477 832h80l110 -851q2 -17 16 -36q9 -12 22 -23
q23 -18 50 -18h8zM690 364l-48 468l-258 -468h306zM883 1204q0 -10 -7 -14l-263 -161h-54l246 228q7 7 12 7q9 0 20 -9l31 -31l10 -10.5t5 -9.5z" />
    <glyph glyph-name="Edieresis" unicode="&#xcb;" horiz-adv-x="792" 
d="M854 962l-46 -228h-35v59q0 31 -5.5 56t-18.5 42t-31 22.5t-43 5.5h-192l-84 -400h128h26q47 3 71 22q18 14 26 29.5t15 44.5l7 24h36l-63 -292h-32l-1 23q0 36 -3 55t-15 32.5t-31.5 15.5t-29.5 2h-144l-62 -288q-3 -12 -6 -31t-3 -36q0 -36 14.5 -52t38.5 -20t44 -4
h120q34 0 58.5 5t53.5 20q36 19 71 66q20 26 38 60l29 53h34l-88 -248h-696l9 34l40 6q24 3 42 9t28 15q25 21 33 61l146 726q4 18 4 26q0 12 -6 23.5t-26.5 15.5t-41.5 4h-32l7 42h616zM762 1154q34 -13 34 -46q0 -29 -24.5 -54.5t-55.5 -25.5q-12 0 -26 6q-29 13 -29 45
q0 29 22.5 54.5t53.5 25.5q12 0 25 -5zM498 1154q16 -6 24 -18t8 -27q0 -29 -23.5 -55t-54.5 -26q-12 0 -26 6q-29 13 -29 45q0 30 22 55t53 25q15 0 26 -5z" />
    <glyph glyph-name="Egrave" unicode="&#xc8;" horiz-adv-x="786" 
d="M854 962l-46 -228h-35v59q0 31 -5.5 56t-18.5 42t-31 22.5t-43 5.5h-192l-84 -400h128h26q47 3 71 22q18 14 26 29.5t15 44.5l7 24h36l-63 -292h-32l-1 23q0 36 -3 55t-15 32.5t-31.5 15.5t-29.5 2h-144l-62 -288q-3 -12 -6 -31t-3 -36q0 -36 14.5 -52t38.5 -20t44 -4
h120q34 0 58.5 5t53.5 20q36 19 71 66q20 26 38 60l29 53h34l-88 -248h-696l9 34l40 6q24 3 42 9t28 15q25 21 33 61l146 726q4 18 4 26q0 12 -6 23.5t-26.5 15.5t-41.5 4h-32l7 42h616zM748 1026h-54l-218 162q-5 3 -5 10q-1 5 3 10q3 4 10 9l44 36q12 10 19 10t12 -7z" />
    <glyph glyph-name="Iacute" unicode="&#xcd;" horiz-adv-x="471" 
d="M614 962l-9 -42l-46 -4q-25 0 -38.5 -3.5t-26.5 -17.5q-9 -9 -13 -19t-8 -28l-154 -744q-3 -14 -3 -26q0 -16 9.5 -24t25.5 -12.5t33 -5.5l40 -2l-10 -34h-367l5 34l51 5q20 0 34.5 4.5t25.5 16t15 21t8 25.5l154 748q2 14 2 19q0 9 -4 18q-7 14 -21.5 19t-37.5 5l-40 5
l7 42h368zM625 1198q0 -10 -7 -14l-263 -161h-54l246 228q7 7 12 7q9 0 20 -9l31 -31l10 -10.5t5 -9.5z" />
    <glyph glyph-name="Icircumflex" unicode="&#xce;" horiz-adv-x="465" 
d="M614 962l-9 -42l-46 -4q-25 0 -38.5 -3.5t-26.5 -17.5q-9 -9 -13 -19t-8 -28l-154 -744q-3 -14 -3 -26q0 -16 9.5 -24t25.5 -12.5t33 -5.5l40 -2l-10 -34h-367l5 34l51 5q20 0 34.5 4.5t25.5 16t15 21t8 25.5l154 748q2 14 2 19q0 9 -4 18q-7 14 -21.5 19t-37.5 5l-40 5
l7 42h368zM645 1028h-45l-148 138l-185 -139h-47l198 225h87z" />
    <glyph glyph-name="Idieresis" unicode="&#xcf;" horiz-adv-x="447" 
d="M614 962l-9 -42l-46 -4q-25 0 -38.5 -3.5t-26.5 -17.5q-9 -9 -13 -19t-8 -28l-154 -744q-3 -14 -3 -26q0 -16 9.5 -24t25.5 -12.5t33 -5.5l40 -2l-10 -34h-367l5 34l51 5q20 0 34.5 4.5t25.5 16t15 21t8 25.5l154 748q2 14 2 19q0 9 -4 18q-7 14 -21.5 19t-37.5 5l-40 5
l7 42h368zM612 1154q34 -13 34 -46q0 -29 -24.5 -54.5t-55.5 -25.5q-12 0 -26 6q-29 13 -29 45q0 29 22.5 54.5t53.5 25.5q12 0 25 -5zM348 1154q16 -6 24 -18t8 -27q0 -29 -23.5 -55t-54.5 -26q-12 0 -26 6q-29 13 -29 45q0 30 22 55t53 25q15 0 26 -5z" />
    <glyph glyph-name="Igrave" unicode="&#xcc;" horiz-adv-x="459" 
d="M614 962l-9 -42l-46 -4q-25 0 -38.5 -3.5t-26.5 -17.5q-9 -9 -13 -19t-8 -28l-154 -744q-3 -14 -3 -26q0 -16 9.5 -24t25.5 -12.5t33 -5.5l40 -2l-10 -34h-367l5 34l51 5q20 0 34.5 4.5t25.5 16t15 21t8 25.5l154 748q2 14 2 19q0 9 -4 18q-7 14 -21.5 19t-37.5 5l-40 5
l7 42h368zM580 1032h-54l-218 162q-5 3 -5 10q-1 5 3 10q3 4 10 9l44 36q12 10 19 10t12 -7z" />
    <glyph glyph-name="Oacute" unicode="&#xd3;" 
d="M1067 578q0 -243 -146 -413q-156 -182 -406 -182q-165 0 -263 116t-98 307q0 241 157 411q152 165 358 165q193 0 295.5 -105.5t102.5 -298.5zM915 587q0 166 -54 251q-61 95 -192 95q-149 0 -262 -163t-113 -379q0 -158 61 -254q69 -109 202 -109q163 0 265 176
q93 161 93 383zM844 1204q0 -10 -7 -14l-263 -161h-54l246 228q7 7 12 7q9 0 20 -9l31 -31l10 -10.5t5 -9.5z" />
    <glyph glyph-name="Ocircumflex" unicode="&#xd4;" 
d="M1072 578q0 -243 -146 -413q-156 -182 -406 -182q-165 0 -263 116t-98 307q0 241 157 411q152 165 358 165q193 0 295.5 -105.5t102.5 -298.5zM920 587q0 166 -54 251q-61 95 -192 95q-149 0 -262 -163t-113 -379q0 -158 61 -254q69 -109 202 -109q163 0 265 176
q93 161 93 383zM893 1028h-45l-148 138l-185 -139h-47l198 225h87z" />
    <glyph glyph-name="Ograve" unicode="&#xd2;" 
d="M1062 578q0 -243 -146 -413q-156 -182 -406 -182q-165 0 -263 116t-98 307q0 241 157 411q152 165 358 165q193 0 295.5 -105.5t102.5 -298.5zM910 587q0 166 -54 251q-61 95 -192 95q-149 0 -262 -163t-113 -379q0 -158 61 -254q69 -109 202 -109q163 0 265 176
q93 161 93 383zM800 1026h-54l-218 162q-5 3 -5 10q-1 5 3 10q3 4 10 9l44 36q12 10 19 10t12 -7z" />
    <glyph glyph-name="Uacute" unicode="&#xda;" horiz-adv-x="1000" 
d="M1144 962l-8 -42l-28 -3q-39 -4 -46 -5q-23 -5 -38 -19q-8 -8 -12 -17.5t-8 -26.5l-117 -509q-41 -180 -126 -264q-92 -91 -254 -91q-144 0 -222 68.5t-78 189.5q0 39 9 84l112 527q3 12 3 21t-4 16q-7 15 -21.5 20t-39.5 5l-40 4l10 42h368l-9 -42l-51 -6
q-21 0 -36 -5.5t-28.5 -20.5t-17.5 -40l-111 -519q-9 -39 -9 -79q0 -81 43 -126q52 -54 166 -54q122 0 190 91q50 67 81 205l107 475q2 6 3 14.5t1 14.5q0 13 -4 21q-9 17 -29.5 22.5t-43.5 5.5l-30 1l7 42h311zM889 1198q0 -10 -7 -14l-263 -161h-54l246 228q7 7 12 7
q9 0 20 -9l31 -31l10 -10.5t5 -9.5z" />
    <glyph glyph-name="Ucircumflex" unicode="&#xdb;" horiz-adv-x="987" 
d="M1144 962l-8 -42l-28 -3q-39 -4 -46 -5q-23 -5 -38 -19q-8 -8 -12 -17.5t-8 -26.5l-117 -509q-41 -180 -126 -264q-92 -91 -254 -91q-144 0 -222 68.5t-78 189.5q0 39 9 84l112 527q3 12 3 21t-4 16q-7 15 -21.5 20t-39.5 5l-40 4l10 42h368l-9 -42l-51 -6
q-21 0 -36 -5.5t-28.5 -20.5t-17.5 -40l-111 -519q-9 -39 -9 -79q0 -81 43 -126q52 -54 166 -54q122 0 190 91q50 67 81 205l107 475q2 6 3 14.5t1 14.5q0 13 -4 21q-9 17 -29.5 22.5t-43.5 5.5l-30 1l7 42h311zM927 1028h-45l-148 138l-185 -139h-47l198 225h87z" />
    <glyph glyph-name="Ugrave" unicode="&#xd9;" horiz-adv-x="988" 
d="M1144 962l-8 -42l-28 -3q-39 -4 -46 -5q-23 -5 -38 -19q-8 -8 -12 -17.5t-8 -26.5l-117 -509q-41 -180 -126 -264q-92 -91 -254 -91q-144 0 -222 68.5t-78 189.5q0 39 9 84l112 527q3 12 3 21t-4 16q-7 15 -21.5 20t-39.5 5l-40 4l10 42h368l-9 -42l-51 -6
q-21 0 -36 -5.5t-28.5 -20.5t-17.5 -40l-111 -519q-9 -39 -9 -79q0 -81 43 -126q52 -54 166 -54q122 0 190 91q50 67 81 205l107 475q2 6 3 14.5t1 14.5q0 13 -4 21q-9 17 -29.5 22.5t-43.5 5.5l-30 1l7 42h311zM868 1032h-54l-218 162q-5 3 -5 10q-1 5 3 10q3 4 10 9l44 36
q12 10 19 10t12 -7z" />
    </font>
</defs>
</svg>
